<svg width="32" height="32" viewBox="0 0 32 32" fill="none" xmlns="http://www.w3.org/2000/svg">
<path fill-rule="evenodd" clip-rule="evenodd" d="M4 4C4 2.03632 6.03621 0 7.99989 0H23.9999C25.9636 0 28 2.03632 28 4V28C28 29.9637 25.9636 32 23.9999 32H7.99989C6.03621 32 4 29.9637 4 28V4ZM7.99989 2C7.01805 2 6 3.01816 6 4V28C6 28.9818 7.01805 30 7.99989 30H24C24.9818 30 26 28.8992 26 27.9174V4C26 3.01816 24.9817 2 23.9999 2H7.99989ZM12 27C12 26.5091 12.5091 26 13 26H19C19.4909 26 20 26.5091 20 27C20 27.4909 19.5045 28 19.0136 28H13C12.5091 28 12 27.4909 12 27Z" fill="#002EFF"/>
<path d="M20.6709 9.36395C20.4986 9.25013 20.2292 9.26915 20.0736 9.40279L19.0833 10.2614C18.9275 10.3961 18.9406 10.6015 19.1101 10.7202C19.1101 10.7202 20.6399 11.7799 20.6399 14.0609C20.6399 16.2233 19.0272 17.4694 19.0272 17.4694C18.8647 17.5948 18.8577 17.8074 19.0135 17.9424L19.9963 18.7871C20.1518 18.9221 20.4215 18.9384 20.5955 18.8292C20.5955 18.8292 22.9057 17.343 22.9057 14.0687C22.9057 10.8171 20.6709 9.36395 20.6709 9.36395Z" fill="#002EFF"/>
<path fill-rule="evenodd" clip-rule="evenodd" d="M11.8812 15.1171C11.8812 15.1171 11.6055 15.0907 11.6055 15.3137C11.6055 16.5737 12.5416 17.4716 14.0122 17.4716C15.1039 17.4716 15.5701 17.2079 16.2294 16.7126C16.3836 16.5966 16.548 16.4885 16.6727 16.625C16.7596 16.7184 17.9178 17.791 17.9178 17.791C18.0629 17.9275 18.0232 18.0905 17.8677 18.2213C17.7132 18.3526 15.9813 19.7021 13.9911 19.7021C11.388 19.7021 8.88867 18.5658 8.88867 14.2864C8.88867 10.8366 10.8368 8.88892 13.6949 8.88892C16.765 8.88892 18.5004 11.0397 18.5004 13.9402V14.674C18.5004 14.9733 18.2585 15.1171 18.0589 15.1171H11.8812ZM15.5363 12.1754C15.2402 11.5475 14.6273 11.0793 13.6949 11.0793C12.7637 11.0793 12.15 11.5475 11.8536 12.1754C11.6843 12.5612 11.6197 12.8457 11.5985 13.3114H15.7911C15.7696 12.8457 15.7055 12.5612 15.5363 12.1754Z" fill="#002EFF"/>
</svg>
