<svg width="32" height="32" fill="none" xmlns="http://www.w3.org/2000/svg"><path fill-rule="evenodd" clip-rule="evenodd" d="M14.647.479a1 1 0 0 1 1.698-.013l5.758 9.116 9.052 1.43a1 1 0 0 1 .633 1.601l-6.718 8.638 1.91 9.55a1 1 0 0 1-1.41 1.1l-10.048-4.785-9.056 4.767a1 1 0 0 1-1.446-1.081l1.91-9.55-6.719-8.639a1 1 0 0 1 .573-1.59l8.585-1.908L14.647.48Zm.867 2.416-4.882 7.988-7.872 1.75 6.31 8.113-1.677 8.389 8.085-4.255 9.15 4.357-1.699-8.491 6.24-8.023-8.273-1.307-5.382-8.521Z" fill="#002EFF"/></svg>