<svg width="33" height="32" viewBox="0 0 33 32" fill="none" xmlns="http://www.w3.org/2000/svg">
<path fill-rule="evenodd" clip-rule="evenodd" d="M2.5 8C2.5 7.44772 2.94772 7 3.5 7H18.5519C19.094 7 19.5373 7.43184 19.5516 7.97369L19.9463 22.9737C19.9611 23.5361 19.5093 24 18.9467 24H10.4646C10.4879 24.1633 10.5 24.3302 10.5 24.5C10.5 25.0368 10.3792 25.5454 10.1632 26H22.8368C22.6208 25.5454 22.5 25.0368 22.5 24.5C22.5 24.3302 22.5121 24.1633 22.5354 24H21.7761C21.8951 23.6635 21.9556 23.2997 21.9456 22.9211L21.6319 11H25.5632C25.86 11 26.1415 11.1318 26.3315 11.3598L30.2682 16.0839C30.418 16.2636 30.5 16.4902 30.5 16.7241V23C30.5 23.5523 30.0523 24 29.5 24H29.4646C29.4879 24.1633 29.5 24.3302 29.5 24.5C29.5 25.0368 29.3792 25.5454 29.1632 26H29.5C31.1569 26 32.5 24.6569 32.5 23V16.7241C32.5 16.0223 32.254 15.3427 31.8047 14.8035L27.8679 10.0794C27.2979 9.39547 26.4536 9 25.5632 9H21.5793L21.5509 7.92108C21.5081 6.29553 20.1781 5 18.5519 5H3.5C1.84315 5 0.5 6.34315 0.5 8V23C0.5 24.6569 1.84315 26 3.5 26H3.83682C3.62085 25.5454 3.5 25.0368 3.5 24.5C3.5 24.3302 3.51209 24.1633 3.53544 24H3.5C2.94772 24 2.5 23.5523 2.5 23V8Z" fill="#002EFF"/>
<path fill-rule="evenodd" clip-rule="evenodd" d="M8.5 24.5C8.5 25.3284 7.82843 26 7 26C6.17157 26 5.5 25.3284 5.5 24.5C5.5 23.6716 6.17157 23 7 23C7.82843 23 8.5 23.6716 8.5 24.5ZM10.5 24.5C10.5 26.433 8.933 28 7 28C5.067 28 3.5 26.433 3.5 24.5C3.5 22.567 5.067 21 7 21C8.933 21 10.5 22.567 10.5 24.5ZM27.5 24.5C27.5 25.3284 26.8284 26 26 26C25.1716 26 24.5 25.3284 24.5 24.5C24.5 23.6716 25.1716 23 26 23C26.8284 23 27.5 23.6716 27.5 24.5ZM29.5 24.5C29.5 26.433 27.933 28 26 28C24.067 28 22.5 26.433 22.5 24.5C22.5 22.567 24.067 21 26 21C27.933 21 29.5 22.567 29.5 24.5Z" fill="#002EFF"/>
</svg>
