<svg width="53" height="24" viewBox="0 0 53 24" fill="none" xmlns="http://www.w3.org/2000/svg">
<path d="M52.25 3H1.5V21.1235H52.25V3Z" fill="#415FFF"/>
<path d="M39.6185 9.03418H36.8979C34.0648 9.03418 33.8193 11.3456 33.8193 12.0514C33.8193 12.7571 34.075 15.0685 36.8979 15.0685H39.6185C42.4515 15.0685 42.697 12.7571 42.697 12.0514C42.7072 11.3456 42.4515 9.03418 39.6185 9.03418ZM39.6185 13.698H36.8979C35.3637 13.698 35.2308 12.44 35.2308 12.0616C35.2308 11.6832 35.3637 10.4252 36.8979 10.4252H39.6185C41.1526 10.4252 41.2856 11.6832 41.2856 12.0616C41.2856 12.44 41.1526 13.698 39.6185 13.698Z" fill="white"/>
<path d="M33.2774 9.17749H32.3978C32.0194 9.17749 31.9376 9.23886 31.7944 9.45364C31.6512 9.66842 29.1249 13.5243 29.1249 13.5243C29.0431 13.647 28.9613 13.6879 28.8488 13.6879C28.7465 13.6879 28.6545 13.6368 28.5726 13.5243C28.5726 13.5243 26.0464 9.66842 25.9032 9.45364C25.76 9.23886 25.6782 9.17749 25.2998 9.17749H24.4202C24.2156 9.17749 24.1236 9.34113 24.2565 9.52523C24.3793 9.71956 27.2737 14.097 27.2737 14.097C27.7442 14.7823 28.0817 15.0584 28.8488 15.0584C29.6159 15.0584 29.9636 14.7823 30.4239 14.097C30.4239 14.097 33.3081 9.70933 33.441 9.52523C33.574 9.34113 33.4717 9.17749 33.2774 9.17749Z" fill="white"/>
<path d="M21.5566 9.55592C21.5566 9.29 21.6589 9.17749 21.9351 9.17749H22.5999C22.8658 9.17749 22.9783 9.27977 22.9783 9.55592V14.7005C22.9783 14.9664 22.876 15.0789 22.5999 15.0789H21.9351C21.6691 15.0789 21.5566 14.9766 21.5566 14.7005V9.55592Z" fill="white"/>
<path d="M21.4951 7.98088C21.2803 7.76609 21.2803 7.59222 21.4951 7.37744L21.9553 6.91719C22.1701 6.70241 22.344 6.70241 22.5588 6.91719L23.019 7.37744C23.2338 7.59222 23.2338 7.76609 23.019 7.98088L22.5588 8.44112C22.344 8.65591 22.1701 8.65591 21.9553 8.44112L21.4951 7.98088Z" fill="white"/>
<path d="M20.1042 9.17749H19.2246C18.8461 9.17749 18.7643 9.23886 18.6211 9.45364C18.4779 9.66842 15.9517 13.5243 15.9517 13.5243C15.8699 13.647 15.788 13.6879 15.6755 13.6879C15.5733 13.6879 15.4812 13.6368 15.3994 13.5243C15.3994 13.5243 12.8731 9.66842 12.73 9.45364C12.5868 9.23886 12.5049 9.17749 12.1265 9.17749H11.2469C11.0219 9.17749 10.9503 9.34113 11.0833 9.52523C11.206 9.71956 14.1005 14.097 14.1005 14.097C14.5709 14.7823 14.9085 15.0584 15.6755 15.0584C16.4426 15.0584 16.7904 14.7823 17.2506 14.097C17.2506 14.097 20.1348 9.70933 20.2678 9.52523C20.4008 9.34113 20.3292 9.17749 20.1042 9.17749Z" fill="white"/>
</svg>
