<svg width="24" height="24" fill="none" xmlns="http://www.w3.org/2000/svg"><path fill-rule="evenodd" clip-rule="evenodd" d="M10.985.359a.75.75 0 0 1 1.274-.01l4.318 6.838 6.79 1.072a.75.75 0 0 1 .474 1.2l-5.039 6.48 1.433 7.163a.75.75 0 0 1-1.058.824l-7.535-3.588-6.792 3.574a.75.75 0 0 1-1.085-.81l1.433-7.163-5.04-6.48a.75.75 0 0 1 .43-1.192l6.438-1.43L10.985.359Zm.65 1.812L7.974 8.163 2.07 9.475l4.733 6.085-1.258 6.292 6.063-3.192 6.863 3.268-1.274-6.368 4.68-6.018-6.205-.98-4.037-6.391Z" fill="#191919"/></svg>