<svg width="16" height="16" viewBox="0 0 16 16" fill="none" xmlns="http://www.w3.org/2000/svg">
<path d="M3.55531 12.8888C3.30985 12.8888 3.11087 13.0878 3.11087 13.3332C3.11087 13.5787 3.30985 13.7777 3.55531 13.7777H12.4442C12.6897 13.7777 12.8886 13.5787 12.8886 13.3332C12.8886 13.0878 12.6897 12.8888 12.4442 12.8888H3.55531Z" fill="#002EFF"/>
<path fill-rule="evenodd" clip-rule="evenodd" d="M1.33309 1.33322V8.88878L0.197136 14.9472C0.0945667 15.4942 0.514232 15.9999 1.0708 15.9999H14.9287C15.4853 15.9999 15.9049 15.4942 15.8024 14.9472L14.6664 8.88878V1.33322C14.6664 0.842305 14.2685 0.444336 13.7775 0.444336H2.22198C1.73106 0.444336 1.33309 0.842305 1.33309 1.33322ZM13.7775 1.33322H2.22198V8.88878H13.7775V1.33322ZM13.9287 9.77767L14.9287 15.111H1.0708L2.0708 9.77767H13.9287Z" fill="#002EFF"/>
</svg>
