<svg width="25" height="24" viewBox="0 0 25 24" fill="none" xmlns="http://www.w3.org/2000/svg">
<path d="M0.0422363 2C0.0422363 1.44772 0.489952 1 1.04224 1H23.0422C23.5945 1 24.0422 1.44772 24.0422 2C24.0422 2.55228 23.5945 3 23.0422 3H1.04224C0.489952 3 0.0422363 2.55228 0.0422363 2Z" fill="#002EFF"/>
<path d="M0.0216064 12.4907C0.0216064 11.9384 0.469322 11.4907 1.02161 11.4907H23.0216C23.5739 11.4907 24.0216 11.9384 24.0216 12.4907C24.0216 13.043 23.5739 13.4907 23.0216 13.4907H1.02161C0.469322 13.4907 0.0216064 13.043 0.0216064 12.4907Z" fill="#002EFF"/>
<path d="M1 20.9951C0.447715 20.9951 0 21.4428 0 21.9951C0 22.5474 0.447715 22.9951 1 22.9951H23C23.5523 22.9951 24 22.5474 24 21.9951C24 21.4428 23.5523 20.9951 23 20.9951H1Z" fill="#002EFF"/>
</svg>
