<svg width="23" height="28" viewBox="0 0 23 28" fill="none" xmlns="http://www.w3.org/2000/svg">
<path d="M15.4998 4.33675C16.4218 3.17573 17.0706 1.60494 16.8999 0C15.534 0.0682953 13.8607 0.887839 12.9046 2.08301C12.0509 3.07329 11.2655 4.71238 11.4704 6.24902C13.007 6.38561 14.5095 5.46362 15.4998 4.33675Z" fill="#636467"/>
<path d="M16.8656 6.52305C14.646 6.38646 12.7338 7.78652 11.6752 7.78652C10.6166 7.78652 8.97753 6.59135 7.236 6.6255C4.94811 6.65964 2.7968 7.95726 1.63578 10.0403C-0.754552 14.1721 1.02113 20.2846 3.34317 23.631C4.47004 25.3043 5.83594 27.1141 7.64577 27.0458C9.35315 26.9775 10.002 25.9531 12.0508 25.9531C14.0997 25.9531 14.7143 27.0458 16.49 27.0116C18.3681 26.9775 19.5292 25.3384 20.656 23.6993C21.9536 21.8212 22.5 19.9772 22.5 19.8748C22.4659 19.8406 18.9145 18.4747 18.8803 14.377C18.8462 10.9622 21.6805 9.32316 21.817 9.22072C20.2463 6.86453 17.7535 6.59135 16.8656 6.52305Z" fill="#636467"/>
</svg>
