<svg width="57" height="16" viewBox="0 0 57 16" fill="none" xmlns="http://www.w3.org/2000/svg">
<g clip-path="url(#clip0_1408_24836)">
<path d="M36.4549 9.88675C35.4972 9.88675 34.7179 9.10722 34.7179 8.14975C34.7179 7.19208 35.4972 6.41276 36.4549 6.41276C37.4126 6.41276 38.1917 7.19208 38.1917 8.14975C38.1917 9.11678 37.403 9.88654 36.4549 9.88654V9.88675ZM36.4549 5.37983C34.9245 5.37983 33.6852 6.61938 33.6852 8.14975C33.6852 9.68012 34.9245 10.9195 36.4549 10.9195C37.9853 10.9195 39.2246 9.68012 39.2246 8.14975C39.2246 6.62874 37.9853 5.38004 36.4549 5.38004V5.37983ZM33.0655 10.0275H33.2908V11.0696H33.0655C31.8731 11.0696 30.8965 10.0932 30.8965 8.9008V4.14048H31.9388V5.53012H33.2813V6.5724H31.9388V8.91016C31.9388 9.52048 32.4458 10.0275 33.0655 10.0275ZM45.7591 9.88675C44.8015 9.88675 44.0223 9.10722 44.0223 8.14975C44.0223 7.19208 44.8015 6.41276 45.7591 6.41276C46.7168 6.41276 47.4961 7.19208 47.4961 8.14975C47.4868 9.11678 46.7075 9.88654 45.7591 9.88654V9.88675ZM45.7591 5.37983C44.2288 5.37983 42.9894 6.61938 42.9894 8.14975C42.9894 9.68012 44.2288 10.9195 45.7591 10.9195C47.2895 10.9195 48.5289 9.68012 48.5289 8.14975C48.5289 6.62874 47.2895 5.38004 45.7591 5.38004V5.37983ZM53.7305 9.88675C52.7726 9.88675 51.9935 9.10722 51.9935 8.14975C51.9935 7.19208 52.7726 6.41276 53.7303 6.41276C54.688 6.41276 55.4673 7.19208 55.4673 8.14975C55.4673 9.11678 54.6786 9.88654 53.7303 9.88654L53.7305 9.88675ZM53.7303 5.37983C52.1999 5.37983 50.9606 6.61938 50.9606 8.14975C50.9606 9.68012 52.1999 10.9195 53.7303 10.9195C54.4063 10.9195 55.026 10.6752 55.5049 10.2715V10.8162H56.5V8.23415V8.14955C56.5 6.62853 55.2607 5.37983 53.7303 5.37983ZM42.0881 5.38004H42.5857V6.42211H42.0881C41.4686 6.42211 40.9614 6.92932 40.9614 7.54879V10.8538H39.9193V7.54879C39.9193 6.35642 40.8957 5.38004 42.0881 5.38004ZM49.2238 3.99975H50.2659V10.8349H49.2238V3.99975ZM23.9677 7.68952V10.9852H22.9254V7.68952C22.9254 7.06985 22.4184 6.56284 21.7987 6.56284C21.1792 6.56284 20.672 7.06985 20.672 7.68952V10.985H19.63V7.68952C19.63 7.06985 19.1227 6.56284 18.5033 6.56284C17.8838 6.56284 17.3766 7.06985 17.3766 7.68952V10.985H16.3345V7.68952C16.3345 6.49694 17.3109 5.52056 18.4939 5.52056C19.1606 5.52056 19.7426 5.81158 20.1463 6.28117C20.55 5.81158 21.1321 5.52056 21.7989 5.52056C22.9911 5.52056 23.9677 6.49694 23.9677 7.68952ZM27.4415 10.0275C26.4838 10.0275 25.7045 9.24816 25.7045 8.29048C25.7045 7.33281 26.484 6.55349 27.4415 6.55349C28.3991 6.55349 29.1785 7.33301 29.1785 8.29048C29.1785 9.24816 28.3898 10.0275 27.4415 10.0275ZM27.4415 5.52077C25.9017 5.52077 24.6622 6.76011 24.6622 8.29048C24.6622 9.82085 25.9017 11.0602 27.4321 11.0602C28.9625 11.0602 30.2018 9.82085 30.2018 8.29048C30.2112 6.76947 28.9718 5.52077 27.4415 5.52077ZM7.79984 2C4.3167 2 1.5 4.8167 1.5 8.29984C1.5 11.783 4.3167 14.5999 7.79984 14.5999C11.2832 14.5999 14.0999 11.7832 14.0999 8.29984C14.0999 4.83541 11.3206 2 7.79984 2" fill="black"/>
<path d="M9.67802 3.54907L7.80965 9.7458L7.80009 9.75516L7.78138 9.7458L5.913 3.54907L3.5 11.4828H3.95067C3.95067 11.4828 4.25126 10.1025 4.74891 9.27642C5.02122 8.82575 5.43427 8.45948 5.98805 8.46883C6.38239 8.47839 6.72039 8.69417 7.143 9.28578C7.23675 9.41716 7.34942 9.63314 7.46208 9.83976C7.64065 10.1869 7.79073 10.5438 7.79073 10.5438C7.79073 10.5438 8.18507 9.64249 8.43868 9.28578C8.86108 8.69417 9.19908 8.47839 9.59342 8.46883C10.1474 8.45948 10.5698 8.82575 10.8328 9.27642C11.3304 10.1025 11.631 11.4828 11.631 11.4828H12.0815L9.67802 3.54907Z" fill="white"/>
</g>
<defs>
<clipPath id="clip0_1408_24836">
<rect width="56" height="16" fill="white" transform="translate(0.5)"/>
</clipPath>
</defs>
</svg>
