<svg width="16" height="17" fill="none" xmlns="http://www.w3.org/2000/svg"><path d="M8 3.248c.246 0 .444.199.444.444v.657c0 .077-.02.15-.054.213.173.034.343.094.525.194.306.167.602.45.732.66a1.9 1.9 0 0 1 .254.602 2.4 2.4 0 0 1 .046.53.444.444 0 1 1-.89 0c0-.152-.004-.248-.024-.34a1.019 1.019 0 0 0-.142-.324 1.383 1.383 0 0 0-.403-.348c-.168-.093-.305-.122-.534-.122a1.15 1.15 0 0 0-1.063.673c-.035.09-.1.374-.013.664.076.254.291.587.958.794.354.11.787.256 1.087.43.496.286.855.784.961 1.197.056.215.065.498.022.776-.044.28-.148.604-.366.868-.27.328-.563.526-.867.636a1.851 1.851 0 0 1-.261.072.443.443 0 0 1 .032.168v.656a.444.444 0 1 1-.888 0v-.656c0-.054.01-.106.027-.154a2.092 2.092 0 0 1-1.25-.773 1.78 1.78 0 0 1-.346-.814 2.292 2.292 0 0 1-.03-.302c-.002-.073 0-.147 0-.143a.444.444 0 1 1 .89 0l-.001.019c0 .122-.003.453.184.69.237.3.563.457.854.463a1.33 1.33 0 0 0 .488-.063c.142-.051.306-.15.482-.364a.926.926 0 0 0 .174-.44 1.15 1.15 0 0 0-.005-.417c-.043-.168-.242-.475-.544-.65-.204-.117-.547-.24-.905-.35-.917-.284-1.376-.818-1.547-1.386a2.013 2.013 0 0 1 .034-1.24 2.04 2.04 0 0 1 1.544-1.216.442.442 0 0 1-.05-.203v-.657c0-.245.2-.444.445-.444Z" fill="#002EFF"/><path fill-rule="evenodd" clip-rule="evenodd" d="M2.565 0C1.828 0 1.23.597 1.23 1.333v13.335c0 .737.597 1.334 1.334 1.334h10.87c.737 0 1.334-.597 1.334-1.334V1.333C14.769.597 14.172 0 13.435 0H2.565ZM2.12 14.668V1.333c0-.245.2-.444.445-.444h10.87c.246 0 .445.199.445.444v13.335a.444.444 0 0 1-.445.445H2.565a.444.444 0 0 1-.445-.445Z" fill="#002EFF"/></svg>