<svg width="26" height="24" viewBox="0 0 26 24" fill="none" xmlns="http://www.w3.org/2000/svg">
<path fill-rule="evenodd" clip-rule="evenodd" d="M3.25 9V21.75C3.25 22.9926 4.25736 24 5.5 24H20.5C21.7426 24 22.75 22.9926 22.75 21.75V9H21.25V21.75C21.25 22.1642 20.9142 22.5 20.5 22.5H5.5C5.08579 22.5 4.75 22.1642 4.75 21.75V9H3.25ZM12.5985 15.1752C12.3903 14.7261 11.9441 14.3668 11.2599 14.3668C10.5758 14.3668 10.1296 14.6961 9.9214 15.1752C9.80242 15.4447 9.74293 15.6542 9.74293 15.9836H12.8067C12.7769 15.6542 12.7472 15.4447 12.5985 15.1752ZM9.95115 17.3309C9.95115 17.3309 9.74293 17.301 9.74293 17.4806C9.74293 18.4088 10.4271 19.0675 11.4979 19.0675C12.301 19.0675 12.6282 18.8878 13.1339 18.4986C13.2529 18.4088 13.3718 18.3489 13.4611 18.4387C13.5206 18.4986 14.3832 19.307 14.3832 19.307C14.5022 19.3968 14.4724 19.5166 14.3534 19.6364L14.3399 19.6467C14.1602 19.7839 12.9419 20.7142 11.5276 20.7142C9.56446 20.6843 7.75 19.8459 7.75 16.7022C7.75 14.1872 9.17777 12.75 11.2599 12.75C13.4908 12.75 14.7699 14.3369 14.7699 16.4626V17.0016C14.7699 17.2112 14.5914 17.3309 14.4427 17.3309H9.95115ZM16.6439 13.2589C16.5249 13.1691 16.3464 13.199 16.2274 13.2888L15.5433 13.9475C15.4243 14.0373 15.4541 14.217 15.573 14.2769C15.573 14.2769 16.6439 15.0853 16.6439 16.7919C16.6439 18.4087 15.5136 19.3368 15.5136 19.3368C15.3946 19.4267 15.3946 19.5764 15.5136 19.6961L16.1977 20.3249C16.3167 20.4147 16.4951 20.4447 16.6141 20.3548C16.6141 20.3548 18.2501 19.247 18.2501 16.7919C18.2204 14.3667 16.6439 13.2589 16.6439 13.2589Z" fill="#002EFF"/>
<path fill-rule="evenodd" clip-rule="evenodd" d="M2.25027 3.24407C2.48586 2.22317 3.39493 1.5 4.44265 1.5H21.5561C22.6038 1.5 23.5129 2.22317 23.7485 3.24407L24.9662 8.52082C25.3558 10.2089 23.2917 11.353 22.0666 10.1279C21.9877 10.0489 21.8626 10.0401 21.7733 10.1071L20.3494 11.175C19.5494 11.775 18.4494 11.775 17.6494 11.175L16.4494 10.275C16.1827 10.075 15.816 10.075 15.5494 10.275L14.3494 11.175C13.5494 11.775 12.4494 11.775 11.6494 11.175L10.4494 10.275C10.1827 10.075 9.81605 10.075 9.54938 10.275L8.34938 11.175C7.54938 11.775 6.44938 11.775 5.64938 11.175L4.22546 10.1071C4.13612 10.0401 4.01111 10.0489 3.93214 10.1279C2.70709 11.353 0.642991 10.2089 1.03256 8.52082L2.25027 3.24407ZM4.44265 3C4.09341 3 3.79039 3.24106 3.71186 3.58136L2.49415 8.85811C2.47769 8.92943 2.48935 8.97371 2.50397 9.00384C2.52148 9.03995 2.55502 9.07768 2.60402 9.10484C2.65302 9.132 2.70278 9.14044 2.74269 9.13615C2.77599 9.13258 2.81972 9.119 2.87148 9.06724C3.47828 8.46044 4.43894 8.39217 5.12546 8.90706L6.54938 9.975C6.81605 10.175 7.18272 10.175 7.44938 9.975L8.64938 9.075C9.44938 8.475 10.5494 8.475 11.3494 9.075L12.5494 9.975C12.816 10.175 13.1827 10.175 13.4494 9.975L14.6494 9.075C15.4494 8.475 16.5494 8.475 17.3494 9.075L18.5494 9.975C18.816 10.175 19.1827 10.175 19.4494 9.975L20.8733 8.90706C21.5598 8.39217 22.5205 8.46044 23.1273 9.06724C23.179 9.119 23.2228 9.13258 23.2561 9.13615C23.296 9.14044 23.3457 9.132 23.3947 9.10484C23.4437 9.07768 23.4773 9.03995 23.4948 9.00384C23.5094 8.97371 23.5211 8.92943 23.5046 8.85811L22.2869 3.58136C22.2084 3.24106 21.9054 3 21.5561 3H4.44265Z" fill="#002EFF"/>
</svg>
