<svg xmlns="http://www.w3.org/2000/svg" xml:space="preserve" id="Capa_2" x="0" y="0" style="enable-background:new 0 0 75 75" version="1.1" viewBox="0 0 75 75"><style>.st1{fill:#fff}</style><switch><g><path d="M67.2 7.8C60.1.8 49.9 0 37.5 0 25.1 0 14.9.8 7.8 7.9.7 14.9 0 25.1 0 37.5s.7 22.6 7.8 29.7c7.1 7.1 17.3 7.8 29.7 7.8 12.4 0 22.6-.7 29.7-7.8C74.3 60.1 75 50 75 37.5c0-12.4-.7-22.6-7.8-29.7z" style="fill:#ff6900"/><path d="M53.2 23.1c-.3 0-.5.2-.5.5v27.8c0 .3.2.5.5.5h6.1c.3 0 .5-.2.5-.5V23.6c0-.3-.2-.5-.5-.5h-6.1zM40.2 51.4c0 .3.2.5.5.5h6.1c.3 0 .5-.2.5-.5V37.5c0-4.6-.2-9.4-2.6-11.8-2.4-2.4-7.2-2.6-11.8-2.6H15.3c-.3 0-.5.2-.5.5v27.8c0 .3.2.5.5.5h6.1c.3 0 .5-.2.5-.5V29.6c0-.3.2-.5.5-.5h11c2.2.1 4.3.3 5.4 1.4 1.3 1.3 1.4 3.9 1.5 6.4v14.5h-.1z" class="st1"/><path d="M27.9 34.2c-.3 0-.5.2-.5.5v16.7c0 .3.2.5.5.5h6.4c.3 0 .5-.2.5-.5V34.7c0-.3-.2-.5-.5-.5h-6.4z" class="st1"/></g></switch></svg>