<svg width="33" height="32" viewBox="0 0 33 32" fill="none" xmlns="http://www.w3.org/2000/svg">
<path fill-rule="evenodd" clip-rule="evenodd" d="M3.5 12V29C3.5 30.6569 4.84315 32 6.5 32H26.5C28.1569 32 29.5 30.6569 29.5 29V12H27.5V29C27.5 29.5523 27.0523 30 26.5 30H6.5C5.94772 30 5.5 29.5523 5.5 29V12H3.5ZM15.9646 20.2336C15.687 19.6348 15.0921 19.1557 14.1799 19.1557C13.2677 19.1557 12.6728 19.5949 12.3952 20.2336C12.2366 20.5929 12.1572 20.8723 12.1572 21.3115H16.2422C16.2026 20.8723 16.1629 20.5929 15.9646 20.2336ZM12.4349 23.1079C12.4349 23.1079 12.1572 23.068 12.1572 23.3075C12.1572 24.5451 13.0694 25.4233 14.4972 25.4233C15.568 25.4233 16.0043 25.1838 16.6785 24.6648C16.8372 24.5451 16.9958 24.4652 17.1148 24.585C17.1941 24.6648 18.3442 25.7427 18.3442 25.7427C18.5029 25.8624 18.4632 26.0221 18.3046 26.1818L18.2865 26.1956C18.0469 26.3785 16.4226 27.619 14.5369 27.619C11.9193 27.579 9.5 26.4613 9.5 22.2696C9.5 18.9162 11.4037 17 14.1799 17C17.1544 17 18.8598 19.1158 18.8598 21.9502V22.6688C18.8598 22.9482 18.6219 23.1079 18.4236 23.1079H12.4349ZM21.3585 17.6785C21.1999 17.5588 20.9619 17.5987 20.8032 17.7184L19.8911 18.5967C19.7324 18.7165 19.7721 18.956 19.9307 19.0358C19.9307 19.0358 21.3585 20.1137 21.3585 22.3892C21.3585 24.5449 19.8514 25.7825 19.8514 25.7825C19.6928 25.9022 19.6928 26.1018 19.8514 26.2615L20.7636 27.0999C20.9222 27.2196 21.1602 27.2595 21.3188 27.1398C21.3188 27.1398 23.5001 25.6627 23.5001 22.3892C23.4605 19.1556 21.3585 17.6785 21.3585 17.6785Z" fill="#002EFF"/>
<path fill-rule="evenodd" clip-rule="evenodd" d="M2.16833 4.32542C2.48245 2.96423 3.69454 2 5.0915 2H27.9095C29.3064 2 30.5185 2.96423 30.8326 4.32542L32.4562 11.3611C32.9757 13.6119 30.2235 15.1373 28.5901 13.5039C28.4848 13.3986 28.3182 13.3867 28.199 13.4761L26.3005 14.9C25.2338 15.7 23.7671 15.7 22.7005 14.9L21.1005 13.7C20.7449 13.4333 20.256 13.4333 19.9005 13.7L18.3005 14.9C17.2338 15.7 15.7671 15.7 14.7005 14.9L13.1005 13.7C12.7449 13.4333 12.256 13.4333 11.9005 13.7L10.3005 14.9C9.23381 15.7 7.76714 15.7 6.70048 14.9L4.80191 13.4761C4.68279 13.3867 4.51611 13.3986 4.41082 13.5039C2.77742 15.1373 0.0252899 13.6119 0.544714 11.3611L2.16833 4.32542ZM5.0915 4C4.62585 4 4.22182 4.32141 4.11711 4.77514L2.4935 11.8108C2.47155 11.9059 2.48711 11.9649 2.50659 12.0051C2.52994 12.0533 2.57466 12.1036 2.63999 12.1398C2.70533 12.176 2.77168 12.1873 2.82489 12.1815C2.86928 12.1768 2.92759 12.1587 2.99661 12.0897C3.80568 11.2806 5.08655 11.1896 6.00191 11.8761L7.90048 13.3C8.25603 13.5667 8.74492 13.5667 9.10048 13.3L10.7005 12.1C11.7671 11.3 13.2338 11.3 14.3005 12.1L15.9005 13.3C16.256 13.5667 16.7449 13.5667 17.1005 13.3L18.7005 12.1C19.7671 11.3 21.2338 11.3 22.3005 12.1L23.9005 13.3C24.256 13.5667 24.7449 13.5667 25.1005 13.3L26.999 11.8761C27.9144 11.1896 29.1953 11.2806 30.0043 12.0897C30.0734 12.1587 30.1317 12.1768 30.1761 12.1815C30.2293 12.1873 30.2956 12.176 30.361 12.1398C30.4263 12.1036 30.471 12.0533 30.4944 12.0051C30.5138 11.9649 30.5294 11.9059 30.5075 11.8108L28.8838 4.77514C28.7791 4.32141 28.3751 4 27.9095 4H5.0915Z" fill="#002EFF"/>
</svg>
