<svg width="24" height="24" viewBox="0 0 24 24" fill="none" xmlns="http://www.w3.org/2000/svg">
<path fill-rule="evenodd" clip-rule="evenodd" d="M19.5 1.5H4.5C3.67157 1.5 3 2.17157 3 3V21C3 21.8284 3.67157 22.5 4.5 22.5H19.5C20.3284 22.5 21 21.8284 21 21V3C21 2.17157 20.3284 1.5 19.5 1.5ZM4.5 0C2.84315 0 1.5 1.34315 1.5 3V21C1.5 22.6569 2.84315 24 4.5 24H19.5C21.1569 24 22.5 22.6569 22.5 21V3C22.5 1.34315 21.1569 0 19.5 0H4.5Z" fill="#191919"/>
<path d="M11.7164 3.75C12.1304 3.75 12.4661 4.09399 12.4661 4.51832V5.65298C12.4661 5.78699 12.4326 5.91298 12.3738 6.02265C12.6666 6.08119 12.9535 6.18497 13.2592 6.35642C13.7757 6.64609 14.2745 7.13433 14.4941 7.49737C14.7154 7.86334 14.8501 8.19711 14.9234 8.53895C14.9945 8.87078 15 9.17834 15 9.45428C15 9.87862 14.6643 10.2226 14.2502 10.2226C13.8362 10.2226 13.5005 9.87862 13.5005 9.45428C13.5005 9.19179 13.4927 9.0266 13.4588 8.86863C13.4271 8.72065 13.3651 8.54756 13.2195 8.30686C13.1979 8.27116 13.1169 8.16575 12.9745 8.03188C12.8385 7.90411 12.6835 7.78526 12.5393 7.7044C12.256 7.54555 12.0257 7.49424 11.6392 7.49424C10.5396 7.49424 9.97492 8.31367 9.84521 8.6586C9.78672 8.81416 9.6753 9.30433 9.82301 9.80626C9.95219 10.2452 10.3148 10.8215 11.4404 11.1782C12.0375 11.3675 12.7667 11.622 13.2738 11.9218C14.1103 12.4162 14.7151 13.278 14.8947 13.9911C14.9882 14.3621 15.0043 14.8521 14.9313 15.3328C14.858 15.8155 14.6816 16.3764 14.3135 16.8341C13.8583 17.4001 13.364 17.7432 12.8509 17.9324C12.7013 17.9875 12.5541 18.0281 12.4111 18.0576C12.4466 18.1469 12.4661 18.2446 12.4661 18.347V19.4817C12.4661 19.906 12.1304 20.25 11.7164 20.25C11.3023 20.25 10.9666 19.906 10.9666 19.4817V18.347C10.9666 18.2537 10.9828 18.1642 11.0126 18.0814C10.1973 17.9305 9.4417 17.4439 8.90333 16.746C8.53676 16.2708 8.38539 15.7378 8.32054 15.3378C8.2875 15.134 8.27512 14.9535 8.27084 14.8155C8.26693 14.6895 8.27008 14.5611 8.27008 14.5679C8.27008 14.1436 8.60576 13.7996 9.01984 13.7996C9.43392 13.7996 9.76959 14.1436 9.76959 14.5679L9.76945 14.6007C9.76816 14.8132 9.76469 15.3847 10.0797 15.7931C10.4795 16.3114 11.0295 16.5847 11.5213 16.5941C11.829 16.6 12.092 16.5791 12.3433 16.4865C12.584 16.3977 12.8596 16.2258 13.1563 15.8568C13.2981 15.6806 13.4018 15.4111 13.4496 15.0965C13.4977 14.78 13.4757 14.5058 13.4428 14.3752C13.3697 14.0849 13.0332 13.5534 12.5246 13.2529C12.1806 13.0495 11.6016 12.8378 10.9974 12.6462C9.44986 12.1558 8.67632 11.2318 8.38736 10.2499C8.11695 9.33105 8.30543 8.47986 8.44599 8.10606C8.68551 7.4691 9.50752 6.25804 11.0496 6.00475C10.9966 5.89936 10.9666 5.77976 10.9666 5.65298V4.51832C10.9666 4.09399 11.3023 3.75 11.7164 3.75Z" fill="#191919"/>
</svg>
