<svg width="21" height="21" viewBox="0 0 21 21" fill="none" xmlns="http://www.w3.org/2000/svg">
<path fill-rule="evenodd" clip-rule="evenodd" d="M15.2016 14.0844L19.7713 18.6541C20.0816 18.9605 20.0816 19.4648 19.7713 19.7713C19.4609 20.0816 18.9605 20.0816 18.6502 19.7713L14.0805 15.2055C12.6995 16.3382 10.9345 17.0171 9.00657 17.0171C4.58044 17.0171 0.996094 13.4288 0.996094 9.00657C0.996094 4.58432 4.58044 0.996094 9.00657 0.996094C13.4288 0.996094 17.0171 4.58432 17.0171 9.00657C17.0171 10.9345 16.3343 12.7034 15.2016 14.0844ZM2.58655 9.00657C2.58655 12.5444 5.46489 15.4227 9.00657 15.4227C12.5444 15.4227 15.4266 12.5444 15.4266 9.00657C15.4266 5.46877 12.5444 2.58655 9.00657 2.58655C5.46489 2.58655 2.58655 5.46877 2.58655 9.00657Z" fill="#002EFF"/>
</svg>
