<svg width="24" height="24" viewBox="0 0 24 24" fill="none" xmlns="http://www.w3.org/2000/svg">
<path fill-rule="evenodd" clip-rule="evenodd" d="M1.5 6C1.5 5.58579 1.83579 5.25 2.25 5.25H13.539C13.9455 5.25 14.278 5.57388 14.2887 5.98027L14.5847 17.2303C14.5958 17.6521 14.2569 18 13.835 18H7.47342C7.49094 18.1225 7.5 18.2477 7.5 18.375C7.5 18.7776 7.40937 19.159 7.24739 19.5H16.7526C16.5906 19.159 16.5 18.7776 16.5 18.375C16.5 18.2477 16.5091 18.1225 16.5266 18H15.957C16.0463 17.7476 16.0917 17.4748 16.0842 17.1908L15.8489 8.25H18.7974C19.02 8.25 19.2311 8.34887 19.3736 8.51986L22.3262 12.0629C22.4385 12.1977 22.5 12.3676 22.5 12.5431V17.25C22.5 17.6642 22.1642 18 21.75 18H21.7234C21.7409 18.1225 21.75 18.2477 21.75 18.375C21.75 18.7776 21.6594 19.159 21.4974 19.5H21.75C22.9926 19.5 24 18.4926 24 17.25V12.5431C24 12.0167 23.8155 11.507 23.4785 11.1027L20.5259 7.55958C20.0984 7.0466 19.4652 6.75 18.7974 6.75H15.8095L15.7882 5.94081C15.7561 4.72165 14.7585 3.75 13.539 3.75H2.25C1.00736 3.75 0 4.75736 0 6V17.25C0 18.4926 1.00736 19.5 2.25 19.5H2.50261C2.34063 19.159 2.25 18.7776 2.25 18.375C2.25 18.2477 2.25906 18.1225 2.27658 18H2.25C1.83579 18 1.5 17.6642 1.5 17.25V6Z" fill="#191919"/>
<path fill-rule="evenodd" clip-rule="evenodd" d="M6 18.375C6 18.9963 5.49632 19.5 4.875 19.5C4.25368 19.5 3.75 18.9963 3.75 18.375C3.75 17.7537 4.25368 17.25 4.875 17.25C5.49632 17.25 6 17.7537 6 18.375ZM7.5 18.375C7.5 19.8247 6.32475 21 4.875 21C3.42525 21 2.25 19.8247 2.25 18.375C2.25 16.9253 3.42525 15.75 4.875 15.75C6.32475 15.75 7.5 16.9253 7.5 18.375ZM20.25 18.375C20.25 18.9963 19.7463 19.5 19.125 19.5C18.5037 19.5 18 18.9963 18 18.375C18 17.7537 18.5037 17.25 19.125 17.25C19.7463 17.25 20.25 17.7537 20.25 18.375ZM21.75 18.375C21.75 19.8247 20.5747 21 19.125 21C17.6753 21 16.5 19.8247 16.5 18.375C16.5 16.9253 17.6753 15.75 19.125 15.75C20.5747 15.75 21.75 16.9253 21.75 18.375Z" fill="#191919"/>
</svg>
