<svg width="24" height="24" viewBox="0 0 24 24" fill="none" xmlns="http://www.w3.org/2000/svg">
<path d="M23.7069 1.70742C24.0974 1.31685 24.0975 0.683577 23.707 0.292972C23.3164 -0.0976332 22.6833 -0.0976609 22.2927 0.29291L11.9988 10.5877L1.7089 0.3006C1.31829 -0.0899024 0.68513 -0.089764 0.294692 0.30091C-0.095747 0.691583 -0.0956086 1.32485 0.295001 1.71535L10.5845 12.002L0.294877 22.2925C-0.095664 22.683 -0.0956917 23.3163 0.294815 23.7069C0.685322 24.0975 1.31849 24.0975 1.70903 23.707L11.999 13.4162L22.2929 23.7072C22.6835 24.0977 23.3166 24.0976 23.7071 23.7069C24.0975 23.3162 24.0974 22.683 23.7068 22.2925L13.4133 12.0018L23.7069 1.70742Z" fill="#002EFF"/>
</svg>
