<svg width="24" height="24" fill="none" xmlns="http://www.w3.org/2000/svg"><path fill-rule="evenodd" clip-rule="evenodd" d="M20 1.5H5A1.5 1.5 0 0 0 3.5 3v18A1.5 1.5 0 0 0 5 22.5h15a1.5 1.5 0 0 0 1.5-1.5V3A1.5 1.5 0 0 0 20 1.5ZM5 0a3 3 0 0 0-3 3v18a3 3 0 0 0 3 3h15a3 3 0 0 0 3-3V3a3 3 0 0 0-3-3H5Z" fill="#002EFF"/><path d="M12.216 3.75a.76.76 0 0 1 .75.768v1.135a.78.78 0 0 1-.092.37c.293.058.58.162.885.333.517.29 1.015.778 1.235 1.141.221.366.356.7.43 1.042.07.332.076.64.076.915a.76.76 0 0 1-.75.769.76.76 0 0 1-.75-.769c0-.262-.007-.427-.041-.585a1.783 1.783 0 0 0-.24-.562 2.337 2.337 0 0 0-.68-.602c-.283-.16-.513-.21-.9-.21-1.1 0-1.664.819-1.794 1.164-.058.155-.17.645-.022 1.147.13.44.492 1.016 1.617 1.372.598.19 1.327.444 1.834.744.836.494 1.441 1.356 1.62 2.07.094.37.11.86.037 1.34-.073.483-.25 1.044-.617 1.502-.456.566-.95.91-1.463 1.098-.15.056-.297.096-.44.126.036.089.055.187.055.289v1.135a.76.76 0 0 1-.75.768.76.76 0 0 1-.75-.768v-1.135c0-.093.017-.183.047-.266-.816-.15-1.571-.637-2.11-1.335-.366-.475-.518-1.008-.582-1.408a4.062 4.062 0 0 1-.05-.522c-.004-.127 0-.255 0-.248a.76.76 0 0 1 .749-.768.76.76 0 0 1 .75.768v.033c-.002.212-.005.784.31 1.192.4.518.95.792 1.441.801.308.006.571-.015.822-.108.241-.088.517-.26.813-.63.142-.175.246-.445.294-.76.048-.316.026-.59-.007-.72-.073-.291-.41-.823-.918-1.123-.344-.204-.923-.415-1.528-.607-1.547-.49-2.32-1.414-2.61-2.396a3.561 3.561 0 0 1 .059-2.144c.24-.637 1.062-1.848 2.604-2.101a.781.781 0 0 1-.083-.352V4.518a.76.76 0 0 1 .75-.768Z" fill="#002EFF"/></svg>