<svg xmlns="http://www.w3.org/2000/svg" width="43" height="29"><g fill="none" fill-rule="evenodd"><rect width="42" height="28" x=".5" y=".5" fill="#FFF" stroke="#E3E3E3" rx="1"/><path fill="#006FCF" fill-rule="nonzero" d="M32.949 15.6V3.45H10V25.9h22.949v-6.55c-.051 0 0-3.75 0-3.75"/><path fill="#FFF" fill-rule="nonzero" d="M30.138 14.35h1.738V10.4h-1.892v.55l-.357-.55H27.99v.7l-.307-.7H24.67c-.102 0-.205.05-.307.05-.102 0-.153.05-.255.1-.103.05-.154.05-.256.1v-.25h-8.638l-.255.65-.256-.65h-2.044v.7l-.307-.7h-1.635L10 12.1v2.25h1.176l.204-.55h.409l.204.55h8.996v-.5l.358.5h2.504v-.3c.051.05.153.05.205.1.05.05.153.05.204.1.102.05.204.05.307.05h1.84l.204-.55h.409l.204.55h2.505v-.5l.409.55zm2.81 5v-3.7H18.894l-.357.5-.358-.5h-4.09v3.95h4.09l.358-.5.357.5h2.556v-.85h-.102c.357 0 .664-.05.92-.15v1.05h1.84v-.5l.357.5h7.616c.307-.1.613-.15.869-.3z"/><path fill="#006FCF" fill-rule="nonzero" d="M32.08 18.4H30.7v.55h1.329c.562 0 .92-.35.92-.85s-.307-.75-.818-.75h-.613c-.154 0-.256-.1-.256-.25s.102-.25.256-.25h1.175l.256-.55h-1.38c-.562 0-.92.35-.92.8 0 .5.307.75.818.75h.613c.153 0 .256.1.256.25.05.2-.052.3-.256.3zm-2.504 0h-1.38v.55h1.328c.563 0 .92-.35.92-.85s-.306-.75-.817-.75h-.614c-.153 0-.255-.1-.255-.25s.102-.25.255-.25h1.176l.255-.55h-1.38c-.562 0-.92.35-.92.8 0 .5.307.75.818.75h.614c.153 0 .255.1.255.25.051.2-.102.3-.255.3zm-1.79-1.6v-.55H25.64v2.65h2.147v-.55h-1.534v-.55h1.483v-.55h-1.483v-.5h1.534v.05zm-3.475 0c.256 0 .358.15.358.3s-.102.3-.358.3h-.767v-.65l.767.05zm-.767 1.15h.307l.818.95h.767l-.92-1c.46-.1.715-.4.715-.8 0-.5-.358-.85-.92-.85H22.88v2.65h.613l.051-.95zm-1.635-.8c0 .2-.102.35-.358.35h-.818v-.7h.767c.256 0 .409.15.409.35zm-1.789-.9v2.65h.613V18h.818c.562 0 .971-.35.971-.9 0-.5-.358-.9-.92-.9l-1.482.05zm-.92 2.65h.767l-1.074-1.35 1.074-1.3H19.2l-.664.85-.665-.85h-.767l1.074 1.3-1.074 1.3h.767l.665-.85.664.9zm-2.3-2.1v-.55h-2.147v2.65H16.9v-.55h-1.533v-.55h1.482v-.55h-1.482v-.5H16.9v.05zm12.42-4.7l1.073 1.6h.767v-2.65h-.613v1.75l-.154-.25-.97-1.5h-.819v2.65h.614v-1.8l.102.2zm-2.658-.05l.205-.55.204.55.256.6h-.92l.255-.6zm1.074 1.65h.664l-1.176-2.65h-.817L25.23 13.7h.665l.255-.55h1.329l.256.55zm-2.863 0l.256-.55h-.153c-.46 0-.716-.3-.716-.75v-.05c0-.45.256-.75.716-.75h.664v-.55h-.716c-.817 0-1.277.55-1.277 1.3v.05c0 .8.46 1.3 1.226 1.3zm-2.3 0h.614v-2.6h-.614v2.6zm-1.329-2.1c.256 0 .358.15.358.3s-.102.3-.358.3h-.766v-.65l.766.05zm-.766 1.15h.306l.818.95h.767l-.92-1c.46-.1.715-.4.715-.8 0-.5-.357-.85-.92-.85h-1.43v2.65h.613l.05-.95zm-1.125-1.15v-.55h-2.146v2.65h2.146v-.55H17.82v-.55h1.482v-.55H17.82v-.5h1.533v.05zm-4.65 2.1h.561l.767-2.15v2.15h.613v-2.65h-1.022l-.613 1.8-.613-1.8h-1.023v2.65h.614v-2.15l.715 2.15zm-3.323-1.65l.204-.55.205.55.255.6h-.92l.256-.6zm1.073 1.65h.665l-1.176-2.65h-.766L10 13.7h.664l.256-.55h1.329l.204.55z"/></g></svg>