<svg xmlns="http://www.w3.org/2000/svg" viewBox="0 0 134.839 39.931"><path d="M129.636 39.877L5.019 40c-2.742.003-4.987-2.238-4.99-4.98L0 5.112C-.003 2.37 2.238.125 4.98.122L129.597 0c2.742-.003 4.987 2.238 4.99 4.98l.029 29.908a4.998 4.998 0 01-4.98 4.989z"/><path d="M129.598.798a4.191 4.191 0 014.191 4.183l.029 29.908a4.191 4.191 0 01-4.183 4.191l-124.617.123A4.191 4.191 0 01.827 35.02L.798 5.111A4.19 4.19 0 014.981.92L129.598.798M129.597 0L4.98.123A4.998 4.998 0 000 5.112L.029 35.02c.003 2.742 2.248 4.982 4.99 4.98l124.617-.122c2.742-.003 4.982-2.248 4.98-4.99l-.029-29.908c-.003-2.742-2.248-4.982-4.99-4.98z" fill="#a6a6a6"/><path d="M67.944 21.746c-2.345.002-4.254 1.787-4.252 4.244.002 2.441 1.915 4.238 4.26 4.236 2.345-.002 4.254-1.803 4.252-4.244-.003-2.458-1.916-4.239-4.26-4.236zm.006 6.809c-1.285.001-2.394-1.058-2.396-2.567-.001-1.526 1.106-2.571 2.391-2.572 1.285-.001 2.394 1.042 2.396 2.567.001 1.51-1.106 2.571-2.391 2.572zm-9.291-6.8c-2.345.002-4.254 1.787-4.252 4.244.002 2.441 1.915 4.238 4.26 4.236 2.345-.002 4.254-1.803 4.252-4.244-.002-2.458-1.915-4.239-4.26-4.236zm.006 6.81c-1.285.001-2.394-1.058-2.396-2.567-.001-1.526 1.106-2.571 2.391-2.572 1.285-.001 2.394 1.042 2.396 2.567.001 1.509-1.106 2.57-2.391 2.572zm-11.05-5.498l.002 1.799 4.304-.004c-.128 1.012-.464 1.751-.978 2.266-.626.627-1.605 1.319-3.323 1.32-2.65.003-4.724-2.132-4.727-4.782-.003-2.65 2.067-4.788 4.717-4.791 1.43-.001 2.474.56 3.246 1.282l1.268-1.27c-1.077-1.027-2.507-1.812-4.515-1.81-3.63.004-6.679 2.962-6.675 6.592.004 3.63 3.058 6.582 6.688 6.579 1.959-.002 3.437-.646 4.592-1.852 1.187-1.19 1.555-2.86 1.554-4.21 0-.418-.033-.803-.098-1.124l-6.055.005zm45.171 1.352c-.354-.947-1.432-2.697-3.632-2.695-2.184.002-3.997 1.722-3.995 4.244.002 2.377 1.803 4.238 4.212 4.236 1.943-.002 3.067-1.192 3.532-1.883l-1.446-.962c-.481.707-1.139 1.174-2.087 1.174-.948.001-1.623-.432-2.057-1.283l5.667-2.35-.194-.481zm-5.781 1.42c-.05-1.638 1.266-2.475 2.214-2.476.739-.001 1.366.368 1.575.898l-3.789 1.578zM82.4 29.955l1.863-.002-.012-12.463-1.863.002.012 12.463zm-3.059-7.273h-.064c-.418-.497-1.222-.946-2.233-.945-2.12.002-4.062 1.867-4.059 4.26.002 2.377 1.948 4.222 4.068 4.22 1.012-.001 1.814-.451 2.232-.966h.064l.001.61c.002 1.622-.865 2.49-2.262 2.492-1.14.001-1.848-.817-2.138-1.508l-1.622.676c.467 1.124 1.705 2.504 3.761 2.502 2.184-.002 4.03-1.289 4.027-4.421l-.007-7.613-1.767.002-.001.691zm-2.13 5.864c-1.285.001-2.362-1.074-2.364-2.551-.001-1.494 1.074-2.587 2.359-2.588 1.269-.001 2.266 1.09 2.267 2.584.001 1.477-.993 2.554-2.262 2.555zm24.295-11.073l-4.458.004.012 12.463 1.86-.002-.005-4.722 2.598-.003c2.062-.002 4.087-1.497 4.085-3.875s-2.03-3.867-4.092-3.865zm.054 6.006l-2.646.003-.004-4.272 2.646-.003c1.391-.001 2.182 1.149 2.183 2.134.001.966-.788 2.137-2.179 2.138zm11.495-1.801c-1.347.001-2.741.596-3.317 1.911l1.652.688c.352-.69 1.009-.915 1.699-.916.962-.001 1.941.575 1.958 1.601v.128c-.337-.192-1.059-.48-1.941-.479-1.78.002-3.591.982-3.589 2.81.002 1.667 1.462 2.74 3.097 2.739 1.251-.001 1.94-.563 2.372-1.221h.064l.001.962 1.796-.002-.005-4.778c-.002-2.212-1.655-3.445-3.787-3.443zm-.218 6.831c-.609.001-1.459-.303-1.46-1.057-.001-.962 1.057-1.332 1.971-1.333.818-.001 1.203.175 1.7.415a2.256 2.256 0 01-2.211 1.975zm10.544-6.568l-2.127 5.405h-.064l-2.218-5.401-2.004.002 3.326 7.549-1.888 4.203 1.94-.002 5.103-11.758-2.068.002zm-16.748 7.99l1.86-.002-.012-12.463-1.86.002.012 12.463z" fill="#fff"/><linearGradient id="a" gradientUnits="userSpaceOnUse" x1="21.757" y1="193.266" x2="5.026" y2="176.535" gradientTransform="scale(1 -1) rotate(.056 205892.664 70.95)"><stop offset="0" stop-color="#00a0ff"/><stop offset=".007" stop-color="#00a1ff"/><stop offset=".26" stop-color="#00beff"/><stop offset=".512" stop-color="#00d2ff"/><stop offset=".76" stop-color="#00dfff"/><stop offset="1" stop-color="#00e3ff"/></linearGradient><path d="M10.406 7.632c-.29.307-.461.784-.46 1.401l.022 22.048c.001.618.173 1.094.463 1.4l.074.072L22.843 20.19v-.292L10.48 7.56l-.074.072z" fill="url(#a)"/><linearGradient id="b" gradientUnits="userSpaceOnUse" x1="33.755" y1="182.009" x2="9.632" y2="182.009" gradientTransform="scale(1 -1) rotate(.056 205892.664 70.95)"><stop offset="0" stop-color="#ffe000"/><stop offset=".409" stop-color="#ffbd00"/><stop offset=".775" stop-color="orange"/><stop offset="1" stop-color="#ff9c00"/></linearGradient><path d="M26.964 24.305l-4.121-4.115v-.292l4.114-4.122.093.053 4.881 2.767c1.394.79 1.395 2.085.003 2.879l-4.875 2.776-.095.054z" fill="url(#b)"/><linearGradient id="c" gradientUnits="userSpaceOnUse" x1="24.775" y1="179.721" x2="2.087" y2="157.032" gradientTransform="scale(1 -1) rotate(.056 205892.664 70.95)"><stop offset="0" stop-color="#ff3a44"/><stop offset="1" stop-color="#c31162"/></linearGradient><path d="M27.058 24.251l-4.215-4.207L10.43 32.482c.46.486 1.218.545 2.072.059l14.556-8.29" fill="url(#c)"/><linearGradient id="d" gradientUnits="userSpaceOnUse" x1="7.299" y1="201.773" x2="17.431" y2="191.642" gradientTransform="scale(1 -1) rotate(.056 205892.664 70.95)"><stop offset="0" stop-color="#32a071"/><stop offset=".069" stop-color="#2da771"/><stop offset=".476" stop-color="#15cf74"/><stop offset=".801" stop-color="#06e775"/><stop offset="1" stop-color="#00f076"/></linearGradient><path d="M27.049 15.829l-14.572-8.26c-.855-.484-1.613-.423-2.072.063l12.437 12.413 4.207-4.216z" fill="url(#d)"/><path d="M26.965 24.159l-14.463 8.236c-.809.461-1.533.431-1.997.013l-.074.074.074.072c.465.418 1.188.449 1.997-.013l14.556-8.289-.093-.093z" opacity=".2"/><path d="M10.43 32.336c-.29-.307-.462-.783-.463-1.4v.146c.001.617.173 1.093.463 1.4l.074-.074-.074-.072zm21.502-11.007l-4.968 2.829.093.093 4.875-2.776c.696-.396 1.044-.918 1.044-1.44-.058.472-.412.935-1.044 1.294z" opacity=".12"/><path d="M12.478 7.715L31.93 18.742c.632.358.987.82 1.046 1.293 0-.522-.349-1.043-1.047-1.438L12.478 7.569c-1.394-.79-2.533-.132-2.532 1.464v.146c-.002-1.596 1.138-2.254 2.532-1.464z" opacity=".25" fill="#fff"/><path d="M41.295 13.061v-6h1.835c.922 0 1.659.278 2.213.834.553.556.829 1.277.829 2.166 0 .888-.276 1.61-.829 2.166-.554.556-1.291.834-2.213.834h-1.835zm.77-.737h1.064c.692 0 1.241-.198 1.646-.595.405-.396.607-.953.607-1.667 0-.71-.202-1.264-.607-1.664-.405-.399-.954-.599-1.646-.599h-1.064v4.525zm5.189.737v-6h.771v6h-.771zm3.837.134c-.436 0-.861-.142-1.277-.427a1.974 1.974 0 01-.817-1.199l.704-.285c.084.33.255.608.515.833.261.226.552.339.876.339.335 0 .622-.088.859-.264a.846.846 0 00.355-.717c0-.335-.118-.593-.355-.775-.237-.182-.613-.351-1.127-.507-.531-.167-.934-.384-1.207-.649s-.411-.604-.411-1.018c0-.43.171-.804.512-1.122.341-.318.785-.478 1.332-.478.509 0 .922.128 1.24.381.318.254.525.532.62.834l-.703.293c-.051-.189-.175-.366-.373-.528-.198-.162-.454-.243-.768-.243-.296 0-.549.082-.758.247a.753.753 0 00-.314.616c0 .224.097.412.289.566.193.153.477.292.851.415.296.095.543.187.742.277.198.089.399.208.603.356.204.148.357.332.461.553s.155.476.155.767c0 .291-.06.55-.18.779a1.46 1.46 0 01-.479.545 2.364 2.364 0 01-.641.306c-.23.071-.464.105-.704.105zm3.88-.134H54.2v-6h2.045c.508 0 .948.169 1.319.507.372.338.558.764.558 1.278s-.186.939-.558 1.277a1.895 1.895 0 01-1.319.507h-1.274v2.431zm0-3.168h1.291c.324 0 .584-.108.779-.326.195-.218.293-.458.293-.721s-.098-.503-.293-.721c-.195-.218-.455-.327-.779-.327h-1.291v2.095zM64 12.286c-.59.607-1.323.909-2.2.909-.877 0-1.61-.303-2.199-.909-.59-.606-.884-1.348-.884-2.225s.294-1.619.884-2.225c.589-.607 1.322-.91 2.199-.91.872 0 1.604.305 2.196.914.592.609.888 1.349.888 2.221 0 .877-.295 1.619-.884 2.225zm-3.83-.502a2.2 2.2 0 001.63.674c.642 0 1.187-.225 1.63-.674.444-.45.667-1.024.667-1.722s-.223-1.273-.667-1.722a2.199 2.199 0 00-1.63-.674c-.643 0-1.186.225-1.63.674-.443.45-.666 1.024-.666 1.722s.222 1.272.666 1.722zm5.796 1.277v-6h.938l2.916 4.667h.033l-.033-1.156V7.061h.771v6h-.805l-3.051-4.894h-.033l.033 1.156v3.737h-.769zm6 0v-6h.771v6h-.771zm2.144 0v-6h2.17c.47 0 .876.155 1.22.465.344.311.516.7.516 1.169a1.3 1.3 0 01-.223.754 1.395 1.395 0 01-.591.495v.033c.296.101.539.274.729.519.189.246.285.531.285.855 0 .492-.181.899-.541 1.223-.36.324-.786.486-1.278.486H74.11zm.771-3.427h1.399c.291 0 .524-.096.7-.289.176-.192.264-.403.264-.632s-.085-.439-.256-.628a.861.861 0 00-.674-.285H74.88v1.834zm0 2.69h1.551a.922.922 0 00.721-.311.994.994 0 00.276-.679.968.968 0 00-.285-.674c-.189-.204-.438-.306-.746-.306h-1.517v1.97zm4.375.737v-6h.771v5.263h2.598v.737h-3.369zM87.1 7.799h-2.732v1.902h2.464v.721h-2.464v1.902H87.1v.737h-3.503v-6H87.1v.738zm6.72 0h-2.732v1.902h2.464v.721h-2.464v1.902h2.732v.737h-3.503v-6h3.503v.738zm1.206 5.262v-6h.938l2.916 4.667h.033l-.033-1.156V7.061h.771v6h-.805l-3.051-4.894h-.033l.033 1.156v3.737h-.769z" fill="#fff" stroke="#fff" stroke-width=".2" stroke-miterlimit="10"/></svg>