<svg width="24" height="24" xmlns="http://www.w3.org/2000/svg"><path d="M12.785 10.331c0-.841-.364-1.097-1.988-1.097-3.168 0-4.375 1.15-4.375 4.141 0 3.868 1.662 5.565 6 5.565 1.723 0 3.163-.132 4.332-.35.406-.075.748-.156 1.027-.236.163-.047.267-.082.312-.1l.33-.128.166.314c.032.061.068.159.1.296.048.203.075.453.075.752 0 1.669-1.99 2.512-6.32 2.512C6.34 22 3.5 19.01 3.5 13.375c0-4.544 2.502-7.054 7.036-7.054 3.855 0 5.17 1.09 5.17 4.01v3.412c0 .066 0 .118-.002.23-.004.441.005.601.047.713.025.064.05.08.208.08.874 0 1.62-1.22 1.62-4.24 0-4.11-1.551-5.466-6.544-5.466-1.484 0-2.833.131-4.02.35a15.15 15.15 0 00-1.087.238 6.647 6.647 0 00-.365.104l-.317.105-.158-.296a1.277 1.277 0 01-.102-.296 3.304 3.304 0 01-.076-.753C4.91 2.851 6.93 2 11.23 2c6.629 0 9.27 2.595 9.27 8.502 0 4.582-1.905 6.98-4.736 6.98-1.367 0-2.255-.424-2.68-1.202-.574.762-1.474 1.252-2.462 1.252-1.599 0-2.848-1.204-2.848-3.298 0-2.335 1.473-3.494 3.586-3.494.552 0 .992.039 1.425.112v-.52zm4.114 9.047c-1.217.228-2.706.363-4.476.363-4.78 0-6.797-2.058-6.797-6.366 0-3.445 1.573-4.943 5.17-4.943 2.017 0 2.784.542 2.784 1.9v1.493l-.474-.095a18.815 18.815 0 00-.359-.07 7.36 7.36 0 00-1.387-.118c-1.71 0-2.79.85-2.79 2.692 0 1.643.885 2.496 2.052 2.496.969 0 1.832-.645 2.165-1.555l.096-.262h.677l.039.358c.1.927.714 1.41 2.165 1.41 2.348 0 3.94-2.005 3.94-6.179 0-5.46-2.28-7.7-8.474-7.7-3.902 0-5.524.683-5.524 1.71 0 .137.007.256.02.36.33-.086.713-.172 1.146-.251a23.11 23.11 0 014.163-.362c5.409 0 7.34 1.686 7.34 6.267 0 3.406-1 5.042-2.416 5.042-.473 0-.803-.206-.951-.597-.093-.246-.105-.446-.1-1.007l.002-.22V10.33c0-2.438-.928-3.208-4.374-3.208-4.095 0-6.24 2.151-6.24 6.252 0 5.2 2.492 7.823 8.149 7.823 3.932 0 5.524-.674 5.524-1.71 0-.13-.007-.246-.018-.347a12.53 12.53 0 01-1.052.237zm-3.319-6.224c0 1.308-.941 2.365-2.22 2.365-.894 0-1.46-.623-1.46-1.604 0-1.174.674-1.775 1.959-1.775.614 0 1.11.076 1.451.192l.27.093v.729zm-1.721-.213c-.866 0-1.164.266-1.164.974 0 .553.227.802.665.802.82 0 1.425-.68 1.425-1.563v-.133a4.808 4.808 0 00-.926-.08z" fill="#00529B" fill-rule="evenodd"/></svg>