<svg width="24" height="24" xmlns="http://www.w3.org/2000/svg"><path d="M11.263 13.563v-1.474h1.975a.502.502 0 00.502-.502V9.11a3.629 3.629 0 013.629-3.628h1.148v1.474H17.37c-1.19 0-2.154.963-2.154 2.154v2.477c0 .278.224.502.502.502h2.606l-.49 1.474h-2.116a.502.502 0 00-.502.502v7.433c0 .277.224.502.502.502h4.129c1.19 0 2.154-.964 2.154-2.154V4.154A2.155 2.155 0 0019.846 2H4.153C2.963 2 2 2.964 2 4.154v15.692C2 21.036 2.963 22 4.153 22h9.085a.502.502 0 00.502-.502v-7.433a.502.502 0 00-.502-.502h-1.975zm4.956 1.004h1.975a.502.502 0 00.476-.344l.826-2.477a.502.502 0 00-.477-.66h-2.8V9.11c0-.636.514-1.15 1.15-1.15h1.65a.502.502 0 00.503-.502V4.98a.502.502 0 00-.503-.503h-1.65a4.633 4.633 0 00-4.633 4.633v1.975h-1.975a.502.502 0 00-.502.502v2.478c0 .277.224.502.502.502h1.975v6.429H4.153a1.148 1.148 0 01-1.149-1.15V4.154c0-.636.514-1.15 1.149-1.15h15.693c.635 0 1.15.515 1.15 1.15v15.692a1.15 1.15 0 01-1.15 1.15h-3.627v-6.43z" fill="#00529B" fill-rule="evenodd"/></svg>