<svg width="24" height="24" xmlns="http://www.w3.org/2000/svg"><path d="M3.423 4.917a.505.505 0 01.815-.055c1.698 2.064 4.06 3.422 7.031 3.722-.09-1.39.536-3.054 1.915-3.838 1.914-1.087 3.826-1.011 5.495.395.645-.148 1.729-.573 2.024-.774.38-.26.885.084.766.52-.097.353-.298.74-.553 1.099a2.73 2.73 0 00.357-.135c.45-.226.918.272.647.689-.445.683-1.207 1.425-1.866 1.9.266 3.367-1.626 7.119-4.775 9.4-3.65 2.643-8.333 2.96-13.024.396-.473-.258-.239-.962.3-.902 1.514.17 3.136-.162 4.374-.826-1.39-.36-2.532-1.258-3.157-2.603-.176-.38.19-.783.599-.661.054.016.109.03.163.044-1.092-.765-1.993-2.066-1.993-3.6 0-.408.486-.633.81-.376.041.033.083.064.126.093C2.69 8.17 2.5 6.432 3.423 4.917zM5.246 9.8a.48.48 0 01-.153.892c-.464.09-.954.048-1.419-.11.428 1.357 1.749 2.358 2.75 2.464.433.047.6.576.266.85-.37.305-.898.45-1.485.447.723.867 1.803 1.347 3.044 1.374.45.01.656.551.32.844-1 .872-2.439 1.475-3.96 1.693 3.686 1.388 7.22.88 10.076-1.19 2.967-2.148 4.713-5.72 4.353-8.804a.479.479 0 01.221-.458 6.22 6.22 0 00.776-.604 4.54 4.54 0 01-.735.084c-.548.002-.695-.735-.185-.932.198-.077.443-.277.674-.53-.44.153-.88.277-1.188.32a.506.506 0 01-.41-.126c-1.379-1.26-2.882-1.355-4.506-.433-1.166.663-1.63 2.317-1.352 3.417a.488.488 0 01-.508.598C8.565 9.429 5.92 8.122 3.976 6.05c-.516 1.504.174 3.127 1.27 3.75z" fill="#00529B" fill-rule="evenodd"/></svg>