<svg width="24" height="24" xmlns="http://www.w3.org/2000/svg"><path d="M14.91 4.138l4.374.413C20.829 4.697 22 6.086 22 7.734v8.532c0 1.648-1.171 3.036-2.716 3.183l-4.375.414a30.91 30.91 0 01-5.818 0l-4.375-.414C3.171 19.302 2 17.914 2 16.266V7.734C2 6.086 3.171 4.697 4.717 4.55l4.374-.413a30.741 30.741 0 015.818 0zm-5.725.996l-4.375.413C3.795 5.643 3 6.587 3 7.734v8.532c0 1.147.796 2.091 1.811 2.187l4.375.414c1.873.177 3.756.177 5.63 0l4.375-.414c1.015-.096 1.811-1.04 1.811-2.187V7.734c0-1.148-.796-2.091-1.811-2.187l-4.375-.413a29.745 29.745 0 00-5.63 0zM9 8.477c0-.37.42-.598.752-.41l6.004 3.405c.32.181.327.62.013.81l-6.004 3.643C9.433 16.126 9 15.9 9 15.524zm.996.835v5.346l4.555-2.763-4.555-2.583z" fill="#00529B" fill-rule="evenodd"/></svg>