<svg xmlns="http://www.w3.org/2000/svg" width="144" height="35"><path d="M57.827 11.11c-.551-.71-1.452-1.084-2.603-1.084-1.37 0-2.458.614-2.503.64l-.075.043-9.096 16.106-1.195-13.362c-.193-2.275-1.519-3.427-3.938-3.427-1.54 0-2.805.815-2.857.85l-.108.07-4.278 18.964c-.213.95-.13 1.676.246 2.16.344.443.913.668 1.693.668 1.114 0 1.953-.49 1.988-.51l.12-.073 3.087-14.852 1.263 12.71c.17 1.787 1.119 2.657 2.906 2.657 1.53 0 2.446-.776 2.483-.808l8.236-14.461-3.128 12.504c-.228.937-.154 1.66.219 2.15.346.452.924.683 1.719.683 1.112 0 1.953-.49 1.987-.51l.119-.07 4.159-18.44c.233-1.033.079-1.936-.444-2.609m-47.2 8.695c1.91 0 3.697.49 5.246 1.335.415.225.807.481 1.185.757a10.247 10.247 0 013.737 5.134c.299.94.462 1.94.462 2.975 0 5.633-21.257 5.633-21.257 0 0-1.036.164-2.034.462-2.975.125-.394.277-.772.448-1.143.924-2.007 2.5-3.672 4.474-4.748a10.882 10.882 0 014.031-1.264c.054-.006.106-.015.161-.02.346-.033.696-.05 1.05-.05zm84.352-4.645c2.095 0 3.693.634 4.625 1.833.882 1.135 1.126 2.724.704 4.594-.472 2.092-.838 2.883-2.82 2.883h-7.402c-.332 1.687-.214 2.866.36 3.598.507.647 1.393.961 2.708.961 2.027 0 3.14-.193 3.15-.194l.284-.052.074.284c.02.08.075.409-.116 1.255-.502 2.226-3.1 2.482-5.01 2.482-2.124 0-3.801-.711-4.849-2.06-1.285-1.654-1.612-4.26-.918-7.333 1.165-5.166 4.609-8.251 9.21-8.251zm35.534 0c2.095 0 3.693.634 4.625 1.833.882 1.135 1.127 2.724.704 4.594-.472 2.092-.838 2.883-2.82 2.883h-7.402c-.332 1.687-.214 2.866.36 3.598.507.647 1.393.961 2.708.961 2.027 0 3.14-.193 3.15-.194l.284-.052.074.284c.021.08.075.409-.115 1.255-.503 2.226-3.101 2.482-5.011 2.482-2.124 0-3.801-.711-4.848-2.06-1.286-1.654-1.613-4.26-.919-7.333 1.165-5.166 4.61-8.251 9.21-8.251zm-13.387 0c2.632 0 4.008.326 4.6 1.088.351.451.43 1.036.25 1.839-.227 1.005-.66 1.492-.677 1.511l-.111.123-.163-.023c-.02-.002-2.083-.296-3.929-.296-2.607 0-4.121 1.33-4.766 4.185-.496 2.202-.424 3.675.22 4.505.491.63 1.37.937 2.687.937 2.264 0 3.127-.19 3.136-.192l.293-.067.078.296c.021.081.075.41-.116 1.256-.502 2.225-3.1 2.482-5.01 2.482-2.154 0-3.785-.693-4.847-2.06-1.287-1.653-1.613-4.259-.919-7.334 1.165-5.166 4.632-8.25 9.274-8.25zm-25.165-4.667l.077.206c.02.053.192.55-.012 1.454-.332 1.47-1.384 2.315-2.889 2.315h-4.8l-3.99 17.69-.118.07c-.034.02-.875.51-1.987.51-.78 0-1.35-.224-1.694-.666-.377-.485-.46-1.212-.245-2.16l3.482-15.444H73.06l-.078-.205c-.02-.054-.19-.551.012-1.455.332-1.47 1.386-2.315 2.89-2.315h16.077zm14.506-1.934c.758 0 1.312.216 1.643.643.377.484.453 1.2.231 2.183l-3.798 16.837c-.108.476-.099.812.025.972.088.112.266.168.53.168.287 0 .469-.027.48-.028l.26-.041.084.254c.02.054.1.345-.011.84-.322 1.43-1.637 2.351-3.352 2.351-1.041 0-1.764-.28-2.21-.854-.532-.683-.624-1.754-.282-3.272l4.392-19.473.118-.07c.035-.021.873-.51 1.89-.51zm35.535 0c.76 0 1.312.216 1.642.642.379.486.454 1.201.232 2.185L140.08 28.22c-.108.476-.099.812.024.972.088.112.265.168.53.168.287 0 .468-.027.48-.028l.259-.04.085.253c.018.054.1.345-.011.841-.322 1.428-1.637 2.35-3.352 2.35-1.042 0-1.764-.28-2.21-.854-.533-.683-.624-1.754-.282-3.272l4.392-19.473.118-.07c.035-.02.873-.51 1.89-.51zM62.586 15.36c.758 0 1.31.215 1.642.642.377.486.454 1.2.232 2.185l-2.264 10.035c-.107.475-.099.811.025.971.087.11.265.168.53.168.286 0 .469-.026.48-.03l.26-.039.085.254c.017.053.1.345-.012.841-.322 1.427-1.637 2.35-3.352 2.35-1.04 0-1.764-.279-2.211-.853-.531-.684-.624-1.755-.28-3.274l2.857-12.67.118-.07c.035-.02.873-.51 1.89-.51zm31.777 3.608c-2.042 0-2.977 1.203-3.404 2.36h5.163c.184-.731.131-1.346-.156-1.744-.29-.41-.831-.616-1.603-.616zm35.534 0c-2.042 0-2.976 1.203-3.404 2.36h5.163c.184-.731.131-1.346-.155-1.744-.291-.41-.832-.616-1.604-.616zM10.59 7.715a5.528 5.528 0 013.932 1.641c.42.43.773.924 1.022 1.474.171.374.289.771.364 1.185.054.292.094.586.094.891 0 .383-.05.754-.132 1.114-.1.435-.27.84-.475 1.228a5.298 5.298 0 01-2.008 2.084 5.539 5.539 0 01-2.797.767A5.55 5.55 0 019.576 18c-.055-.008-.107-.02-.16-.032a5.37 5.37 0 01-3.63-2.72 5.054 5.054 0 01-.476-1.228c-.08-.36-.13-.73-.13-1.114 0-.305.04-.6.093-.89a4.96 4.96 0 01.363-1.186c.106-.233.238-.453.377-.666a5.392 5.392 0 013.402-2.318c.054-.012.106-.024.161-.033a5.64 5.64 0 011.014-.098zm0 2.595c-.36 0-.701.07-1.014.193-.056.022-.107.05-.16.076a2.616 2.616 0 00-1.357 1.436c-.013.034-.022.07-.033.105-.083.249-.14.51-.14.786 0 .4.102.775.27 1.114.264.53.709.957 1.26 1.215l.024.013c.045.02.09.043.136.062.313.122.654.193 1.014.193.276 0 .536-.052.787-.126a2.646 2.646 0 001.648-1.357c.168-.34.27-.713.27-1.114a2.598 2.598 0 00-1.098-2.076 2.744 2.744 0 00-1.607-.52zm12.21 1.47a1.2 1.2 0 01.689.235c.23.162.39.392.456.667.022.087.055.168.055.26 0 .644-.538 1.166-1.2 1.166h-4.015c-.158 0-.307-.034-.446-.089a1.16 1.16 0 01-.75-1.076c0-.39.21-.716.51-.928.198-.137.425-.236.686-.236zm41.972-3.222c1.04 0 1.69.514 1.717.536l.157.126-.316 1.398c-.396 1.754-1.536 2.682-3.297 2.682-1.041 0-1.69-.513-1.718-.534l-.156-.126.315-1.4c.396-1.754 1.536-2.682 3.298-2.682zM19.139 3.474c.22 0 .43.078.625.193.082.047.168.085.239.153.05.05.075.114.114.17.335.462.312 1.097-.114 1.509l-.24.233-2.625 2.552a1.208 1.208 0 01-.48.275c-.424.137-.91.053-1.247-.275a1.166 1.166 0 010-1.679l.2-.193 2.492-2.423.173-.169c.239-.23.55-.346.863-.346zM10.552 0c.094 0 .18.032.268.053.528.12.929.561.929 1.11v3.902c0 .645-.536 1.166-1.197 1.166-.414 0-.76-.218-.976-.529a1.085 1.085 0 01-.161-.344c-.026-.096-.061-.189-.061-.293V1.163C9.354.521 9.89 0 10.552 0z" fill="#FFF" fill-rule="evenodd"/></svg>