<svg xmlns="http://www.w3.org/2000/svg" width="43" height="29"><g fill="none" fill-rule="evenodd"><rect width="42" height="28" x=".5" y=".5" fill="#FFF" stroke="#E3E3E3" rx="1"/><path fill="#231F20" fill-rule="nonzero" d="M13.33 23.892v-1.295a.759.759 0 00-.224-.593.79.79 0 00-.602-.227.816.816 0 00-.738.367.774.774 0 00-.694-.367.698.698 0 00-.615.306v-.254H10v2.063h.461v-1.135a.476.476 0 01.126-.393.496.496 0 01.388-.155c.303 0 .457.194.457.544V23.9h.462v-1.144a.476.476 0 01.126-.392.5.5 0 01.388-.156c.311 0 .46.194.46.544V23.9l.462-.009zm6.825-2.063h-.751v-.626h-.461v.626h-.418v.41h.426v.95c0 .479.19.764.73.764.202 0 .4-.055.57-.16l-.131-.384a.859.859 0 01-.404.116c-.22 0-.303-.138-.303-.345v-.941h.747l-.005-.41zm3.897-.052a.623.623 0 00-.554.302v-.25h-.452v2.063h.457v-1.157c0-.34.15-.53.44-.53a.753.753 0 01.285.051l.14-.432a1.023 1.023 0 00-.325-.056l.009.009zm-5.891.216a1.596 1.596 0 00-.857-.216c-.532 0-.879.25-.879.66 0 .337.255.544.725.609l.22.03c.25.035.369.1.369.216 0 .16-.167.25-.479.25a1.13 1.13 0 01-.699-.215l-.22.35c.267.182.586.276.91.267.606 0 .958-.28.958-.673s-.277-.553-.734-.618l-.22-.03c-.197-.026-.355-.065-.355-.203s.15-.242.4-.242c.231.003.458.064.658.177l.203-.362zm12.237-.216a.62.62 0 00-.553.302v-.25h-.453v2.063h.457v-1.157c0-.34.15-.53.44-.53a.753.753 0 01.285.051l.14-.432a1.023 1.023 0 00-.325-.056l.01.009zm-5.887 1.08c-.01.292.104.576.318.782.213.205.504.313.802.296a1.11 1.11 0 00.756-.246l-.22-.362a.932.932 0 01-.549.185.667.667 0 01-.62-.66c0-.345.27-.633.62-.66a.938.938 0 01.55.185l.22-.363a1.114 1.114 0 00-.757-.246 1.069 1.069 0 00-.802.297 1.03 1.03 0 00-.318.782v.01zm4.28 0v-1.028h-.458v.25a.802.802 0 00-.659-.302c-.606 0-1.098.483-1.098 1.08 0 .595.492 1.078 1.098 1.078a.803.803 0 00.66-.302v.25h.456v-1.027zm-1.701 0a.63.63 0 01.658-.587.627.627 0 01.61.633.629.629 0 01-.631.614.636.636 0 01-.466-.194.613.613 0 01-.171-.467zm-5.514-1.08a1.089 1.089 0 00-1.083 1.094 1.09 1.09 0 001.114 1.064c.316.016.627-.084.872-.28l-.22-.333a1.005 1.005 0 01-.61.216.578.578 0 01-.628-.505h1.56v-.173c0-.647-.41-1.079-.998-1.079l-.007-.004zm0 .401a.532.532 0 01.372.143c.1.093.157.222.16.358H21.01a.536.536 0 01.558-.5h.008zm11.447.682V21h-.44v1.08a.8.8 0 00-.658-.303c-.607 0-1.098.483-1.098 1.08 0 .595.491 1.078 1.098 1.078a.802.802 0 00.659-.302v.25h.44V22.86zm.762.732a.24.24 0 01.084.015.23.23 0 01.068.043.198.198 0 01.046.225.226.226 0 01-.046.065.23.23 0 01-.152.06.218.218 0 01-.197-.125.202.202 0 01.046-.225.23.23 0 01.068-.043.233.233 0 01.09-.015h-.007zm0 .365a.156.156 0 00.114-.263.156.156 0 00-.114-.048.173.173 0 00-.116.048.157.157 0 000 .215.158.158 0 00.053.035c.022.01.046.014.07.013h-.007zm.014-.257c.02-.001.04.005.057.017a.06.06 0 01.02.046.05.05 0 01-.016.038.074.074 0 01-.046.02l.064.071h-.05l-.06-.071h-.02v.071h-.042v-.19l.093-.002zm-.049.037v.051h.049a.039.039 0 00.026 0 .021.021 0 000-.019.023.023 0 000-.02.057.057 0 00-.026 0l-.049-.012zm-2.416-.877a.63.63 0 01.658-.586.628.628 0 01.61.633.629.629 0 01-.631.614.639.639 0 01-.466-.193.617.617 0 01-.171-.468zm-15.427 0v-1.03h-.457v.25a.804.804 0 00-.66-.302c-.606 0-1.097.483-1.097 1.08 0 .595.491 1.078 1.098 1.078a.8.8 0 00.659-.302v.25h.457V22.86zm-1.7 0a.63.63 0 01.657-.586.628.628 0 01.611.633.629.629 0 01-.631.614.637.637 0 01-.469-.192.61.61 0 01-.173-.469h.005z"/><g fill-rule="nonzero"><path fill="#FF5F00" d="M18.113 6.613h6.731v11.632h-6.731z"/><path fill="#EB001B" d="M18.54 12.43c-.002-2.27 1.082-4.415 2.939-5.817-3.154-2.384-7.683-2.036-10.405.798-2.721 2.834-2.721 7.203 0 10.037 2.722 2.834 7.25 3.18 10.405.797-1.857-1.401-2.94-3.545-2.939-5.815z"/><path fill="#F79E1B" d="M33.925 12.43c0 2.832-1.682 5.416-4.33 6.654-2.65 1.237-5.801.912-8.116-.839 1.855-1.402 2.939-3.546 2.939-5.816s-1.084-4.414-2.94-5.816c2.316-1.75 5.467-2.076 8.116-.838 2.65 1.237 4.331 3.82 4.331 6.653v.002zm-.735 4.76v-.386h.1v-.08h-.254v.08h.11v.386h.044zm.494 0v-.465h-.077l-.09.332-.09-.332h-.068v.465h.056v-.349l.083.303h.058l.083-.303v.352l.045-.003z"/></g></g></svg>