<svg xmlns="http://www.w3.org/2000/svg" width="43" height="29"><g fill="none" fill-rule="evenodd"><rect width="42" height="28" x=".5" y=".5" fill="#FFF" stroke="#E3E3E3" rx="1"/><g fill="#1A1F71" fill-rule="nonzero"><path d="M18.168 9.549l-1.672 9.808h2.673l1.673-9.808zm-3.913.011l-2.618 6.69-.279-1.01c-.516-1.217-1.982-2.964-3.703-4.066l2.394 8.18 2.828-.005 4.21-9.79-2.832.001z"/><path d="M10.343 10.262c-.155-.597-.605-.775-1.163-.797H5.034L5 9.661c3.225.782 5.36 2.667 6.245 4.934l-.902-4.333zM26.26 11.43a4.929 4.929 0 012 .375l.241.113.362-2.125a6.892 6.892 0 00-2.393-.413c-2.642 0-4.504 1.33-4.518 3.237-.017 1.408 1.326 2.195 2.34 2.664 1.043.482 1.392.788 1.387 1.217-.008.657-.83.958-1.599.958-1.07 0-1.639-.148-2.516-.514l-.345-.156-.376 2.195c.626.274 1.78.51 2.978.522 2.81 0 4.636-1.314 4.655-3.351.012-1.115-.7-1.965-2.246-2.663-.935-.455-1.507-.758-1.501-1.217 0-.408.485-.843 1.532-.843zm9.463-1.87h-2.065c-.642 0-1.119.175-1.4.814l-3.97 8.989h2.807s.458-1.209.562-1.474l3.423.005c.08.342.326 1.469.326 1.469h2.48L35.723 9.56zm-3.297 6.322c.22-.563 1.065-2.741 1.065-2.741-.014.027.218-.567.357-.937l.18.846.62 2.832h-2.222z"/></g></g></svg>