<?xml version="1.0" encoding="UTF-8"?>
<svg width="48px" height="46px" viewBox="0 0 48 46" version="1.1" xmlns="http://www.w3.org/2000/svg" xmlns:xlink="http://www.w3.org/1999/xlink">
    <!-- Generator: sketchtool 60.1 (101010) - https://sketch.com -->
    <title>74FF8CF8-9B77-48C2-9695-DB4E818175FB</title>
    <desc>Created with sketchtool.</desc>
    <g id="Desktop-NUEVO" stroke="none" stroke-width="1" fill="none" fill-rule="evenodd">
        <g id="04-Login-web-desktop-Hogar---Olvidaste-clave" transform="translate(-1416.000000, -1015.000000)">
            <g id="Group-3" transform="translate(1416.000000, 1015.090909)">
                <rect id="Rectangle-3" fill="#FFFFFF" x="0" y="8.52651283e-14" width="48" height="45.8181818" rx="10"></rect>
                <g id="facebook-logo" transform="translate(17.000000, 7.636364)" fill="#0154A0" fill-rule="nonzero">
                    <path d="M9.91266242,9.99828605 L9.91266242,7.36910712 C9.91266242,6.97441575 9.93168577,6.6687018 9.97034395,6.45274349 C10.0088662,6.23646091 10.0965096,6.02374522 10.2325265,5.81375333 C10.3683397,5.60389114 10.5882633,5.459011 10.8919575,5.3787238 C11.1960594,5.29830689 11.6001699,5.25822814 12.1046964,5.25822814 L14.8589384,5.25822814 L14.8589384,0 L10.4557792,0 C7.90800849,0 6.07816561,0.576991314 4.96597877,1.73097394 C3.85392781,2.88521598 3.29797028,4.58538506 3.29797028,6.8321297 L3.29797028,9.99822119 L0,9.99822119 L0,15.2568384 L3.29776645,15.2568384 L3.29776645,30.5137417 L9.91259448,30.5137417 L9.91259448,15.2569033 L14.315482,15.2569033 L14.8974607,9.99828605 L9.91266242,9.99828605 Z" id="Shape"></path>
                </g>
            </g>
        </g>
    </g>
</svg>