<?xml version="1.0" encoding="UTF-8"?>
<svg width="24px" height="24px" viewBox="0 0 24 24" version="1.1" xmlns="http://www.w3.org/2000/svg" xmlns:xlink="http://www.w3.org/1999/xlink">
    <!-- Generator: sketchtool 60.1 (101010) - https://sketch.com -->
    <title>ABA7D03F-8C76-4100-B71A-F60558117953</title>
    <desc>Created with sketchtool.</desc>
    <g id="Desktop-NUEVO" stroke="none" stroke-width="1" fill="none" fill-rule="evenodd">
        <g id="01-Login-web-desktop-SMS" transform="translate(-979.000000, -273.000000)">
            <g id="Group-8" transform="translate(979.000000, 273.000000)">
                <path d="M22.9293474,8.87842071 L21.0135198,7.31009405 C20.8203367,7.6347331 20.5391352,7.89535881 20.3482383,8.22342714 C20.3402367,8.23828738 20.3299488,8.24971833 20.320804,8.26343548 L22.1554719,9.76546262 L22.1554719,20.2865112 C22.1554719,21.5839243 21.100395,22.6390012 19.8029819,22.6390012 L3.52644881,22.6390012 C2.23017881,22.6390012 1.17395881,21.5839243 1.17395881,20.2865112 L1.17395881,9.76546262 L11.6355664,1.2013931 L11.6492836,1.18881905 L11.6641438,1.176245 L13.7811562,2.90803429 C14.0331639,2.48311385 14.1344215,2.31823758 14.3504176,1.85524357 L12.4403055,0.291489286 C12.218545,0.0971630952 11.941916,1.54543045e-13 11.66643,1.54543045e-13 C11.389801,1.54543045e-13 11.1131719,0.0971630952 10.8925545,0.291489286 L0.401226429,8.87956381 C0.14631619,9.10361048 2.18491891e-13,9.42596333 2.18491891e-13,9.76546262 L2.18491891e-13,20.2865112 C2.18491891e-13,22.2354886 1.57975762,23.8152462 3.528735,23.8152462 L19.8052681,23.8152462 C21.7542455,23.8152462 23.33286,22.2354886 23.33286,20.2865112 L23.33286,9.76546262 C23.3305738,9.42482024 23.1842576,9.10246738 22.9293474,8.87842071 Z" id="icon/letra-U/48px/Upgrade-pack-Copy" fill="#002EFF"></path>
                <path d="M12.2802721,18.2940962 C11.9407729,17.95574 11.3875148,17.95574 11.0480155,18.2940962 L10.2169852,17.463066 C11.0148657,16.6651855 12.3134219,16.6651855 13.1113024,17.463066 L12.2802721,18.2940962 Z" id="Path" fill="#00FFAF"></path>
                <path d="M14.342416,16.2319524 C12.8655369,14.7562164 10.4627507,14.7562164 8.98701476,16.2319524 L8.15484143,15.4009221 C10.0901017,13.4656619 13.239329,13.4656619 15.1734462,15.4009221 L14.342416,16.2319524 Z" id="Path" fill="#00FFAF"></path>
                <path d="M16.4045598,14.1698086 C13.791444,11.5566929 9.53798667,11.5555498 6.92372786,14.1698086 L6.09269762,13.3376352 C9.16533762,10.2661383 14.1640931,10.2661383 17.2367331,13.3376352 L16.4045598,14.1698086 Z" id="Path" fill="#00FFAF"></path>
                <polygon id="Path" fill="#002EFF" points="3.4315719 7.34781619 2.2553269 7.34781619 2.2553269 2.64283619 5.7840619 2.64283619 5.7840619 4.99532619 4.60667381 6.17157119 4.60667381 3.81908119 3.4315719 3.81908119"></polygon>
                <polygon id="Path-2" fill="#002EFF" points="14.3504176 1.85524357 21.0913953 7.3735269 20.320804 8.26343548 13.7811562 2.90803429"></polygon>
            </g>
        </g>
    </g>
</svg>