<?xml version="1.0" encoding="UTF-8"?>
<svg width="15px" height="24px" viewBox="0 0 15 24" version="1.1" xmlns="http://www.w3.org/2000/svg" xmlns:xlink="http://www.w3.org/1999/xlink">
    <!-- Generator: sketchtool 60.1 (101010) - https://sketch.com -->
    <title>8BDCF862-8842-4DF5-B9C5-47D1AF8E4FC4</title>
    <desc>Created with sketchtool.</desc>
    <g id="Desktop-NUEVO" stroke="none" stroke-width="1" fill="none" fill-rule="evenodd">
        <g id="01-Login-web-desktop-SMS" transform="translate(-812.000000, -273.000000)" fill-rule="nonzero">
            <g id="Group-6" transform="translate(812.000000, 273.000000)">
                <path d="M12.9308937,17.2251479 L12.9308937,1.29132847 L1.29132847,1.29132847 L1.29132847,17.2251479 L12.9308937,17.2251479 Z M2.03392858e-13,18.5164764 L2.03392858e-13,1.23263172 C2.03392858e-13,0.55203516 0.55203516,1.04805054e-13 1.23263172,1.04805054e-13 L12.9895905,1.04805054e-13 C13.670187,1.04805054e-13 14.2222222,0.55203516 14.2222222,1.23263172 L14.2222222,18.5164764 L2.03392858e-13,18.5164764 Z" id="icon/letra-A/48px/Accesorios/blue" fill="#002EFF"></path>
                <path d="M14.2222222,17.2251479 L14.2222222,19.767891 C14.2222222,21.7456857 12.6195152,23.3483927 10.6417205,23.3483927 L3.58050167,23.3483927 C1.60270696,23.3483927 2.03392858e-13,21.7456857 2.03392858e-13,19.767891 L2.03392858e-13,17.2251479 L14.2222222,17.2251479 Z M1.29132847,18.5164764 L1.29132847,19.767891 C1.29132847,21.0325047 2.31588798,22.0570642 3.58050167,22.0570642 L10.6417205,22.0570642 C11.9063343,22.0570642 12.9308937,21.0325047 12.9308937,19.767891 L12.9308937,18.5164764 L1.29132847,18.5164764 Z" id="Path" fill="#002EFF"></path>
                <circle id="Oval" fill="#002EFF" cx="7.11052414" cy="20.2104645" r="1"></circle>
                <path d="M5.94011097,7.15513367 C5.43531893,7.15513367 5.02561563,7.56601091 5.02561563,8.07080295 C5.02561563,8.84207823 6.24533407,9.84579264 7.03891411,10.3576283 C7.9111478,9.80118311 9.05221259,8.8209474 9.05221259,8.07080295 C9.05221259,7.56601091 8.64133535,7.15513367 8.13654331,7.15513367 C7.87358188,7.15513367 7.63057734,7.26783143 7.45096529,7.47209612 L7.03656624,7.94636585 L6.62334113,7.47092218 C6.44607695,7.26783143 6.20307241,7.15513367 5.94011097,7.15513367 Z M7.03891411,11.6325217 L6.7665612,11.4763883 C6.47542532,11.3108635 3.92681249,9.80353098 3.92681249,8.06962902 C3.92681249,6.95908653 4.82956849,6.05633054 5.94011097,6.05633054 C6.33337919,6.05633054 6.71373412,6.17372403 7.03891411,6.3873802 C7.36292016,6.1725501 7.74444903,6.05633054 8.13771725,6.05633054 C9.24825973,6.05633054 10.1521897,6.95908653 10.1521897,8.06962902 C10.1521897,9.80353098 7.6024029,11.3108635 7.31244096,11.4763883 L7.03891411,11.6325217 Z" id="Shape" fill="#00FFAF"></path>
            </g>
        </g>
    </g>
</svg>