<?xml version="1.0" encoding="UTF-8"?>
<svg width="48px" height="46px" viewBox="0 0 48 46" version="1.1" xmlns="http://www.w3.org/2000/svg" xmlns:xlink="http://www.w3.org/1999/xlink">
    <!-- Generator: sketchtool 60.1 (101010) - https://sketch.com -->
    <title>1B7C7090-6019-4239-9145-A46EDC5C515E</title>
    <desc>Created with sketchtool.</desc>
    <g id="Desktop-NUEVO" stroke="none" stroke-width="1" fill="none" fill-rule="evenodd">
        <g id="04-Login-web-desktop-Hogar---Olvidaste-clave" transform="translate(-1474.000000, -1015.000000)">
            <g id="Group-9" transform="translate(1474.000000, 1015.090909)">
                <rect id="Rectangle-3" fill="#FFFFFF" x="0" y="8.52651283e-14" width="48" height="45.8181818" rx="10"></rect>
                <g id="twitter-black-shape" transform="translate(10.105263, 12.861244)" fill="#1DA1F2" fill-rule="nonzero">
                    <path d="M26.8850489,2.47517635 C25.8273497,2.90943583 24.7694116,3.18063413 23.7121905,3.28956972 C24.9062995,2.60567093 25.7140035,1.63950918 26.1348246,0.391141514 C25.0425301,1.00979302 23.8770414,1.43304487 22.6375222,1.6611252 C21.5456459,0.553860491 20.203894,0 18.6113703,0 C17.0876191,0 15.7884094,0.512852799 14.7132632,1.53878653 C13.6387144,2.56466324 13.1013803,3.80481796 13.1013803,5.25942181 C13.1013803,5.65016408 13.1467905,6.05197102 13.2378499,6.46444337 C10.985982,6.35590702 8.87357125,5.81584884 6.90025907,4.84426883 C4.9270664,3.87257476 3.25244579,2.57800927 1.87639725,0.96057238 C1.3759888,1.7745665 1.12569495,2.65945431 1.12569495,3.6147225 C1.12569495,4.51575103 1.34742817,5.3517604 1.79119337,6.1225225 C2.23465982,6.89317052 2.83186369,7.51729732 3.58250624,7.99501696 C2.69527459,7.96239332 1.86510445,7.73978829 1.0918763,7.32725889 L1.0918763,7.39239211 C1.0918763,8.66260393 1.50982938,9.77779641 2.34561606,10.7388251 C3.18152223,11.6997397 4.23641312,12.3045888 5.51004971,12.5543993 C5.03234636,12.6736581 4.54890699,12.733373 4.05997059,12.733373 C3.74150169,12.733373 3.39459167,12.7062817 3.01936002,12.6523843 C3.37188657,13.7051812 4.02017692,14.5706203 4.96399206,15.249443 C5.90798646,15.9279235 6.97703816,16.2776581 8.17120691,16.2999015 C6.16969261,17.7977374 3.88950309,18.5466553 1.33063835,18.5466553 C0.841522698,18.5466553 0.398116,18.5253815 0,18.4816932 C2.5589245,20.0556129 5.37931614,20.8425727 8.46135418,20.8425727 C10.4174583,20.8425727 12.2541814,20.5470778 13.9709259,19.9552895 C15.6885069,19.3639004 17.1554356,18.5712371 18.372429,17.5777559 C19.5890638,16.5845029 20.6384577,15.4419339 21.5197143,14.1501631 C22.4010307,12.8582782 23.0575666,11.5095872 23.4900987,10.1038047 C23.9220931,8.69773709 24.1382696,7.28950216 24.1382696,5.87801627 C24.1382696,5.57402323 24.1325336,5.34617104 24.1211213,5.19411748 C25.2018243,4.44542768 26.122994,3.53880979 26.8850489,2.47517635 Z" id="Shape"></path>
                </g>
            </g>
        </g>
    </g>
</svg>