<?xml version="1.0" encoding="UTF-8"?>
<svg width="48px" height="46px" viewBox="0 0 48 46" version="1.1" xmlns="http://www.w3.org/2000/svg" xmlns:xlink="http://www.w3.org/1999/xlink">
    <!-- Generator: sketchtool 60.1 (101010) - https://sketch.com -->
    <title>20C85AA0-5BBC-45D3-BD41-ADD7B1803FF2</title>
    <desc>Created with sketchtool.</desc>
    <g id="Desktop-NUEVO" stroke="none" stroke-width="1" fill="none" fill-rule="evenodd">
        <g id="04-Login-web-desktop-Hogar---Olvidaste-clave" transform="translate(-1532.000000, -1015.000000)">
            <g id="Group-10" transform="translate(1532.000000, 1015.090909)">
                <rect id="Rectangle-3" fill="#FFFFFF" x="0" y="8.52651283e-14" width="48" height="45.8181818" rx="10"></rect>
                <g id="youtube-logo" transform="translate(10.285714, 13.909091)" fill="#E81E1E" fill-rule="nonzero">
                    <path d="M27.3931607,7.15392614 C27.3831964,6.62839773 27.3395893,5.96393182 27.2633571,5.16114205 C27.1866964,4.35789205 27.0770357,3.64003977 26.9344286,3.00753409 C26.77125,2.29709659 26.416875,1.69844318 25.8714643,1.21177841 C25.3260536,0.725011364 24.6912321,0.442840909 23.9670536,0.364857955 C21.7032321,0.121704545 18.2823214,0 13.7042143,0 C9.12605357,0 5.70508929,0.121704545 3.44142857,0.364857955 C2.71735714,0.442789773 2.08505357,0.725011364 1.54478571,1.21177841 C1.00430357,1.69828977 0.6525,2.29694318 0.489321429,3.00753409 C0.336535714,3.64024432 0.221678571,4.35804545 0.145232143,5.16114205 C0.0688928571,5.96393182 0.0255,6.62814205 0.015375,7.15392614 C0.00503571429,7.67950568 0,8.40942614 0,9.34389205 C0,10.2782557 0.00503571429,11.0083807 0.0154285714,11.533858 C0.0255535714,12.0597443 0.0689464286,12.7238523 0.145285714,13.5265909 C0.221732143,14.3297898 0.331392857,15.047642 0.474160714,15.68025 C0.637339286,16.390892 0.991607143,16.9894432 1.537125,17.4759034 C2.08275,17.9625682 2.717625,18.2447898 3.44148214,18.3227216 C5.70514286,18.5661307 9.12589286,18.6877841 13.7042679,18.6877841 C18.2828036,18.6877841 21.7032857,18.5661307 23.9671071,18.3227216 C24.6912857,18.2448409 25.3233214,17.9625682 25.8638036,17.4759034 C26.4042857,16.989392 26.755875,16.3905341 26.9190536,15.68025 C27.0719464,15.047642 27.1866964,14.3297898 27.2633571,13.5265909 C27.3395893,12.7239034 27.382875,12.0594375 27.3931607,11.533858 C27.4033929,11.0083807 27.4085357,10.2782557 27.4085357,9.34389205 C27.4085357,8.40942614 27.4034464,7.67950568 27.3931607,7.15392614 Z M19.1187321,10.1323125 L11.2878214,14.8040795 C11.145,14.901392 10.9714821,14.9500227 10.7676429,14.9500227 C10.6148036,14.9500227 10.4567679,14.9109545 10.2936429,14.833125 C9.95721429,14.6581364 9.78905357,14.3854773 9.78905357,14.0157102 L9.78905357,4.672125 C9.78905357,4.30246023 9.95726786,4.02980114 10.2936429,3.85465909 C10.6404107,3.67921023 10.9716964,3.68902841 11.2878214,3.88385795 L19.1187857,8.55567614 C19.4245714,8.72084659 19.5774643,8.98378977 19.5774643,9.34394318 C19.5774643,9.70394318 19.4245179,9.96698864 19.1187321,10.1323125 Z" id="Shape"></path>
                </g>
            </g>
        </g>
    </g>
</svg>